<?xml version="1.0" encoding="UTF-8"?>
<svg id="Layer_1" xmlns="http://www.w3.org/2000/svg" xmlns:xlink="http://www.w3.org/1999/xlink" version="1.1" viewBox="0 0 900 900">
  <!-- Generator: Adobe Illustrator 29.1.0, SVG Export Plug-In . SVG Version: 2.1.0 Build 142)  -->
  <defs>
    <style>
      .st0, .st1 {
        fill: none;
      }

      .st2 {
        fill: url(#linear-gradient1);
      }

      .st2, .st3 {
        stroke-width: 10px;
      }

      .st2, .st3, .st1 {
        stroke: #eaff1d;
        stroke-miterlimit: 10;
      }

      .st4 {
        fill: #013263;
      }

      .st5 {
        fill: #eaff1d;
      }

      .st3 {
        fill: url(#linear-gradient);
      }

      .st6 {
        fill: #fff;
      }

      .st7 {
        fill: #ff321a;
      }

      .st1 {
        stroke-width: 5px;
      }

      .st8 {
        clip-path: url(#clippath);
      }
    </style>
    <linearGradient id="linear-gradient" x1="450" y1="8.2" x2="450" y2="896.2" gradientTransform="translate(0 901.5) scale(1 -1)" gradientUnits="userSpaceOnUse">
      <stop offset="0" stop-color="#013263"/>
      <stop offset=".7" stop-color="#01154b"/>
      <stop offset="1" stop-color="#02043e"/>
    </linearGradient>
    <linearGradient id="linear-gradient1" x1="450" y1="766.2" x2="450" y2="138.3" gradientTransform="translate(0 901.5) scale(1 -1)" gradientUnits="userSpaceOnUse">
      <stop offset="0" stop-color="#013263"/>
      <stop offset=".7" stop-color="#01154b"/>
      <stop offset="1" stop-color="#02043e"/>
    </linearGradient>
    <clipPath id="clippath">
      <circle class="st0" cx="450" cy="449.3" r="300.3"/>
    </clipPath>
  </defs>
  <g id="uuid-9ae81c52-01da-41ed-a315-b356c815a7f2">
    <circle class="st3" cx="450" cy="449.3" r="444"/>
    <circle class="st2" cx="450" cy="449.3" r="313.9"/>
  </g>
  <g id="uuid-55526056-184a-41ec-9f5c-1d1c29200247">
    <path class="st6" d="M116.3,207.5l5.7-7.3,40.7,13.6h.1c0-.1-31.7-25.1-31.7-25.1l5.9-7.5,52.7,41.5-5.6,7.1-40.7-13.4h-.1c0,.1,31.7,25.1,31.7,25.1l-5.9,7.5-52.7-41.5h0Z"/>
    <path class="st6" d="M157.5,181.9c-7.8-7.7-5.8-17.4-.3-23,5.5-5.6,15.2-7.6,23,0l25.2,24.9c7.8,7.7,5.8,17.4.3,23-5.5,5.6-15.2,7.6-23,0l-25.2-24.9h0ZM189.4,200c3.3,3.2,6.9,2.6,9.4.2,2.5-2.5,3-6.1-.2-9.4l-25.2-24.9c-3.3-3.2-6.9-2.6-9.4-.2-2.5,2.5-3,6.1.2,9.4l25.2,24.9Z"/>
    <path class="st6" d="M179.5,138.3l12-9.7c8.9-7.2,17.4-5.4,25.5,4.7,4.8,6,6.7,11.8,4.1,18.2l27.3,17.3-7.9,6.4-24.9-16.7-4.5,3.6,18,22.3-7.5,6-42.1-52.2h0ZM205.8,155.6l4.3-3.4c5.2-4.2,3.6-7.8-.5-13-4.3-5.3-7.4-7.4-12.9-3l-3.9,3.1,13.1,16.3h0Z"/>
    <path class="st6" d="M223.9,115.9l-9.3,6.1-5-7.5,26.5-17.5,5,7.5-9.3,6.1,32,48.4-8,5.3-32-48.4h0Z"/>
    <path class="st6" d="M244.3,92.2l8.5-4.5,13.4,25.4,10.5-5.5-13.4-25.4,8.5-4.5,31.2,59.3-8.5,4.5-13.9-26.4-10.5,5.5,13.9,26.4-8.5,4.5-31.2-59.3Z"/>
    <path class="st6" d="M284.9,71.8l26.6-10.6,3.4,8.4-17.7,7.1,7.3,18.3,15.4-6.2,3.3,8.4-15.4,6.2,7.3,18.3,17.7-7.1,3.6,8.9-26.6,10.6-24.9-62.2h0Z"/>
    <path class="st6" d="M322.4,57.5l14.8-4.2c11-3.1,18.1,1.8,21.7,14.3,2.1,7.4,1.6,13.4-3.4,18.4l18.3,26.6-9.8,2.8-16.4-25.1-5.5,1.6,7.8,27.5-9.2,2.6-18.3-64.5h0ZM339.8,83.6l5.3-1.5c6.4-1.8,6.4-5.7,4.6-12.2-1.9-6.5-3.9-9.7-10.7-7.8l-4.8,1.4,5.7,20.1Z"/>
    <path class="st6" d="M366.4,45.7l9.1-1.5,20.9,37.5h.2s-6.6-39.9-6.6-39.9l9.5-1.6,10.9,66.1-8.9,1.5-21.1-37.4h-.2s6.6,39.8,6.6,39.8l-9.5,1.6-10.9-66.1h0Z"/>
    <path class="st6" d="M432.7,37.8l9.6-.3,2.1,67-9.6.3-2.1-67Z"/>
    <path class="st6" d="M455.6,37.2l9.2.5,12.3,41.1h.2l2.2-40.3,9.6.5-3.6,66.9-9-.5-12.5-41h-.2l-2.1,40.2-9.6-.5,3.6-66.9h0Z"/>
    <path class="st6" d="M503.1,40.7l28.3,4.6-1.4,8.9-18.8-3-3.2,20.1,16.4,2.6-1.4,8.9-16.4-2.6-4.6,28.3-9.5-1.5,10.7-66.2h0Z"/>
    <path class="st6" d="M538,62.8c2.9-10.5,12.3-13.6,19.8-11.6,7.5,2,14.1,9.5,11.3,20l-9.3,34.2c-2.9,10.5-12.3,13.6-19.8,11.6-7.5-2-14.1-9.5-11.3-20,0,0,9.3-34.2,9.3-34.2ZM538,99.5c-1.2,4.5,1.1,7.3,4.5,8.2,3.4.9,6.8-.4,8-4.8l9.3-34.2c1.2-4.5-1.1-7.3-4.5-8.2-3.4-.9-6.8.4-8,4.8l-9.3,34.2Z"/>
    <path class="st6" d="M586.7,60.5l14.4,5.7c10.6,4.2,13.3,12.4,8.5,24.5-2.8,7.2-6.9,11.6-13.9,12.5l-1.6,32.3-9.5-3.7,2.2-29.9-5.3-2.1-10.5,26.6-8.9-3.5,24.6-62.3h0ZM584.6,91.8l5.1,2c6.2,2.5,8.6-.7,11-6.9,2.5-6.3,2.8-10.1-3.8-12.7l-4.6-1.8-7.7,19.4Z"/>
    <path class="st6" d="M629.9,78.2l8.1,4.5-6.4,37h.2c0,0,27.9-25,27.9-25l8.2,4.5-32.4,58.7-8.4-4.6,19.7-35.7h-.2c0,0-22.3,20.5-22.3,20.5l-4.2-2.3,5.7-29.8h-.2c0,0-19.7,35.6-19.7,35.6l-8.4-4.6,32.4-58.7h0Z"/>
    <path class="st6" d="M689.2,114.1l6.5,4.7-27.3,63-7.8-5.6,6.2-13.3-10.6-7.7-10.8,10-7.8-5.6,51.5-45.4h0ZM681.1,132.1h-.2c0-.1-18.1,16.8-18.1,16.8l7.8,5.6,10.5-22.4h0Z"/>
    <path class="st6" d="M709.4,141.2l-8.4-7.2,5.9-6.9,24.1,20.8-5.9,6.9-8.4-7.2-37.8,43.9-7.3-6.3,37.8-43.9h0Z"/>
    <path class="st6" d="M736.7,153.6l6.8,6.8-47.2,47.6-6.8-6.8,47.2-47.6Z"/>
    <path class="st6" d="M740.7,179.9c8.3-7.1,17.8-4.3,22.9,1.6,5.1,5.9,6.3,15.8-2,22.9l-26.9,23c-8.3,7.1-17.8,4.3-22.9-1.6-5.1-5.9-6.3-15.8,2-22.9l26.9-23h0ZM720,210.2c-3.5,3-3.2,6.7-.9,9.3,2.3,2.6,5.9,3.5,9.4.5l26.9-23c3.5-3,3.2-6.7.9-9.3-2.3-2.6-5.9-3.5-9.4-.5l-26.9,23h0Z"/>
    <path class="st6" d="M782.1,205.2l5.2,7.6-25.4,34.6v.2c.1,0,33.6-22.6,33.6-22.6l5.4,8-55.6,37.4-5-7.5,25.2-34.7v-.2c-.1,0-33.5,22.5-33.5,22.5l-5.4-8,55.6-37.4h0Z"/>
  </g>
  <g id="uuid-08892acb-f427-4dc4-bcd1-4230245a29c4">
    <path class="st6" d="M113.4,341.5l-2.1,6.7-59.9-4.8,2.5-8,12.8,1.4,3.4-10.9-11.3-6.1,2.5-8,52.2,29.9h0ZM96.2,339.9v-.2c0,0-19.1-10.2-19.1-10.2l-2.5,8,21.5,2.3h0Z"/>
    <path class="st6" d="M106.7,364.2l-2.6,12.3c-.9,4.5-2.7,7.6-6.3,9.8s-7.4,2.3-14.2.9c-5-1.1-8.3-2.2-11-4.8-3.2-3-4.7-7.1-3.5-13.2l.9-4.2-22.4-4.7,1.7-8.2,57.4,12.1h0ZM77.7,366.7l-.8,4c-1.4,6.7,2.5,7.6,8.3,8.8,5.4,1.1,9.8,2.1,11.2-4.4l.9-4.3-19.5-4.1h0Z"/>
    <path class="st6" d="M100.3,396.5l-1.4,12.5c-.5,4.6-2,7.8-5.3,10.3s-7.2,3-14.1,2.2c-5.1-.6-8.5-1.4-11.4-3.7-3.5-2.7-5.4-6.7-4.7-12.8l.5-4.3-22.8-2.6,1-8.4,58.3,6.7h0ZM71.6,401.7l-.5,4c-.8,6.8,3.2,7.3,9,8,5.5.6,10,1.2,10.7-5.4l.5-4.3-19.8-2.3h0Z"/>
    <path class="st6" d="M96.9,429.4l-.2,8.4-50.3-1.3-.4,16.7-8.4-.2.6-25,58.7,1.5h0Z"/>
    <path class="st6" d="M96.6,460.2l.4,8.4-58.6,2.5-.4-8.4,58.6-2.5Z"/>
    <path class="st6" d="M97.4,476.7l2.7,24.9-7.9.9-1.8-16.5-17.1,1.9,1.6,14.4-7.9.9-1.6-14.4-17.1,1.9,1.8,16.5-8.4.9-2.7-24.9,58.3-6.4h0Z"/>
    <path class="st6" d="M100.9,506.5l2.5,12.2c1.9,9.3-2.6,15.6-11.9,17.5l-26.9,5.5c-10.7,2.2-16.9-2.3-18.8-12l-2.3-11.5,57.5-11.7h0ZM52.8,524.9l.8,3.8c.9,4.6,3.6,5.9,8.5,4.9l27.7-5.7c4.5-.9,6.8-3,5.8-7.8l-.8-3.8-42,8.6h0Z"/>
    <path class="st6" d="M105.8,586.7l-2.8-7.9,1.8-.6c3.6-1.3,6.1-3.9,4.7-8-1.5-4.3-5.4-4.1-9.1-2.8-4.3,1.5-5.6,2.4-5.8,7.1l-.2,6.9c-.2,7.9-4.1,10.8-12.2,13.7-9.3,3.3-17.4,2.4-21.1-7.9-2.7-7.7.9-15.5,8.3-18.2l2.9-1.1,2.8,7.9-2.5.9c-2.9,1-5.1,3.6-3.7,7.6,1.9,5.4,5.2,4.6,10.3,2.8,5.9-2.1,6.6-3.1,6.7-7.6l.3-6.5c.4-7.8,4.2-11.2,11.1-13.7,8.4-3,16.7-.9,20,8.2,2.8,7.9-1.7,15.5-7.8,17.7l-3.9,1.4h0Z"/>
    <path class="st6" d="M93.9,629.7c-6.6,3-14.8.4-18-6.4-2.7-5.8-3-13.9,6.7-18.4l29.3-13.6c7-3.2,14.6-.7,18,6.7,3.3,7,.4,14.7-7,18.2l-3,1.4-3.5-7.6,2.5-1.2c3-1.4,4.7-4.4,3.3-7.3-1.8-3.8-4.8-3.5-8.4-1.8l-27.2,12.6c-3.1,1.4-4.9,3.7-3.3,7.2,1,2.1,3.4,4.2,7.6,2.3l2.6-1.2,3.5,7.6-3.3,1.5h0Z"/>
    <path class="st6" d="M138.7,616.6l4.1,7.4-51.4,28.4-4.1-7.4,51.4-28.4h0Z"/>
    <path class="st6" d="M146.8,631.2l13.5,21.1-6.7,4.3-9-14-14.5,9.3,7.8,12.2-6.7,4.3-7.8-12.2-14.5,9.3,9,14-7.1,4.5-13.5-21.1,49.4-31.7Z"/>
    <path class="st6" d="M162.9,655.9l5,6.4-20,31.8h.1c0,.1,27.8-21.7,27.8-21.7l5.2,6.6-46.2,36.2-4.9-6.2,19.8-31.9h-.1c0-.1-27.8,21.6-27.8,21.6l-5.2-6.6,46.2-36.2h0Z"/>
    <path class="st6" d="M171,735c-5.2,5-13.9,5.2-19.1-.3-4.4-4.6-7.3-12.2.5-19.6l23.4-22.3c5.5-5.3,13.6-5.3,19.2.6,5.3,5.6,5.1,13.8-.8,19.5l-2.4,2.3-5.8-6.1,2-1.9c2.4-2.3,3-5.6.8-8-2.9-3-5.7-1.8-8.5,1l-21.7,20.7c-2.4,2.3-3.4,5.1-.8,7.9,1.6,1.7,4.6,2.9,7.9-.3l2.1-2,5.8,6.1-2.6,2.5h0Z"/>
    <path class="st6" d="M208.6,707.8l18.9,16.5-5.2,6-12.5-11-11.3,13,10.9,9.6-5.2,6-10.9-9.6-11.3,13,12.5,11-5.5,6.3-18.9-16.5,38.6-44.2h0Z"/>
    <path class="st6" d="M243.5,757l-6.8-4.9,1.1-1.5c2.3-3.1,2.8-6.7-.6-9.2-3.7-2.7-6.8-.4-9.1,2.8-2.7,3.7-3.3,5.2-.7,9.1l3.7,5.9c4.3,6.6,2.7,11.3-2.3,18.2-5.8,8-13.1,11.8-21.9,5.4-6.6-4.8-8.1-13.3-3.4-19.7l1.8-2.5,6.8,4.9-1.6,2.1c-1.8,2.5-2.2,5.8,1.3,8.4,4.6,3.3,6.9.9,10.1-3.5,3.7-5.1,3.7-6.3,1.3-10.1l-3.4-5.5c-4.1-6.7-2.8-11.6,1.5-17.6,5.2-7.2,13.3-10.2,21.1-4.5,6.8,4.9,7.4,13.7,3.5,19l-2.4,3.3h0Z"/>
    <path class="st6" d="M266.1,813.2c-4.5,1.4-8.3,1.2-12.2-.8-5.9-3.1-8.2-10.4-4.4-17.7,3-5.7,8.2-8.2,14.2-9.8-.7-5.1-.5-10,1.8-14.3,2.9-5.5,8.7-8.3,15.4-4.7,6.3,3.3,7.6,9.5,4.9,14.6-2.5,4.8-8.4,7.6-14.4,9.1.3,3.8.5,9.5,1.2,14.5l6.9-3.4,2.9,5.6-9.3,4.2.9,11.8-7.4-3.9-.4-5.2h0ZM258.3,807.2c2.3,1.2,5.4.6,7.2-.2l-1.2-15.1c-3.4,1.1-6.4,2.7-8.1,5.9-1.9,3.6-1.1,7.8,2.1,9.5h0ZM270.8,783.2c2.7-.8,6.8-2.2,8.7-5.8,1-1.8.6-4.5-1.6-5.6-2.3-1.2-4.8.2-6,2.4s-1.3,5.5-1.1,9h0Z"/>
    <path class="st6" d="M320.9,778.5l11.9,4.2c4.4,1.5,7.2,3.7,8.9,7.5,1.7,3.8,1.3,7.6-1,14.2-1.7,4.8-3.2,8-6.2,10.3-3.4,2.8-7.7,3.8-13.5,1.7l-4-1.4-7.6,21.6-7.9-2.8,19.4-55.4h0ZM319.6,807.6l3.8,1.3c6.5,2.3,7.9-1.5,9.8-7,1.8-5.2,3.3-9.5-2.9-11.7l-4.1-1.4-6.6,18.8h0Z"/>
    <path class="st6" d="M352,789.1l8.2,2-6,24.4,10.1,2.5,6-24.4,8.2,2-14.1,57-8.2-2,6.3-25.4-10.1-2.5-6.3,25.4-8.2-2,14.1-57h0Z"/>
    <path class="st6" d="M394.8,798.4l6.9,1,4.3,60-8.3-1.2-.6-12.8-11.3-1.7-4.3,12.1-8.3-1.2,21.6-56.1h0ZM395.8,815.6h-.2s-7.2,20.4-7.2,20.4l8.3,1.2-.9-21.6h0Z"/>
    <path class="st6" d="M417.8,801.6l8.1.4,10.9,36h.2l1.8-35.3,8.4.4-3,58.6-7.9-.4-11-35.9h-.2l-1.8,35.2-8.4-.4,3-58.6h0Z"/>
    <path class="st6" d="M460,810.6l-9.7.4-.3-7.9,27.8-1.1.3,7.9-9.7.4,2,50.7-8.4.3-2-50.7h0Z"/>
    <path class="st6" d="M486.1,801l7-.8,19.6,56.9-8.4.9-3.9-12.3-11.4,1.3-1.1,12.8-8.4.9,6.5-59.8h0ZM491.5,817.4h-.2s-1.7,21.6-1.7,21.6l8.4-.9-6.5-20.7h0Z"/>
    <path class="st6" d="M539.6,809l-8.2,1.7-.4-1.9c-.8-3.8-3.1-6.6-7.3-5.7-4.5.9-4.8,4.8-4,8.6.9,4.4,1.6,5.9,6.3,6.7l6.8,1.2c7.8,1.2,10.2,5.5,11.9,13.9,2,9.7,0,17.6-10.7,19.8-8,1.7-15.3-3-16.9-10.7l-.6-3.1,8.2-1.7.5,2.6c.6,3,2.8,5.6,7,4.7,5.6-1.2,5.3-4.6,4.2-9.8-1.3-6.1-2.2-6.9-6.6-7.7l-6.4-1.2c-7.7-1.4-10.5-5.7-12-12.9-1.8-8.7,1.4-16.7,10.8-18.7,8.2-1.7,15.1,3.8,16.4,10.1l.8,4h0Z"/>
    <path class="st6" d="M541.4,791.3l7.7-2.5,19.9,26.2h.2c0,0,.5-32.9.5-32.9l7.8-2.5,18.2,55.8-8,2.6-11.1-33.9h-.2c0,0,0,26.6,0,26.6l-4,1.3-15.7-21.4h-.2c0,0,11.1,34,11.1,34l-8,2.6-18.2-55.8h0Z"/>
    <path class="st6" d="M615.5,780.9l-7.7,3.5-.8-1.7c-1.6-3.5-4.4-5.8-8.3-4-4.2,1.9-3.7,5.7-2.1,9.3,1.9,4.1,2.9,5.4,7.6,5.2l6.9-.3c7.9-.5,11.1,3.2,14.7,11,4.1,9,3.8,17.2-6.1,21.7-7.4,3.4-15.5.4-18.8-6.8l-1.3-2.9,7.7-3.5,1.1,2.4c1.3,2.8,4,4.8,7.9,3,5.2-2.3,4.2-5.6,2-10.5-2.6-5.7-3.7-6.3-8.1-6.1l-6.5.2c-7.8.3-11.5-3.3-14.5-10-3.7-8.1-2.3-16.6,6.5-20.6,7.7-3.5,15.5.4,18.2,6.3l1.7,3.8h0Z"/>
    <path class="st6" d="M688.7,785.6l-6.6,4.3-26.3-28.3h-.1c0,0,15.6,35.4,15.6,35.4l-6.6,4.3-39.5-44.3,7.4-4.9,24,28.8h.1c0,0-14.9-34.9-14.9-34.9l5.4-3.5,26.7,28.1h.1c0,0-17.6-34.2-17.6-34.2l7.4-4.9,24.9,53.9h0Z"/>
    <path class="st6" d="M674.5,740.4c-6.1-7.3-3.6-15.7,1.7-20,5.3-4.4,13.9-5.3,20,2l19.8,23.8c6.1,7.3,3.6,15.7-1.7,20-5.3,4.4-13.9,5.3-20-2l-19.8-23.8ZM700.8,758.8c2.6,3.1,5.8,2.9,8.2.9s3.2-5.1.6-8.2l-19.8-23.8c-2.6-3.1-5.8-2.9-8.2-.9-2.3,1.9-3.2,5.1-.6,8.2l19.8,23.8Z"/>
    <path class="st6" d="M692.3,707.2l9.5-9.6c7-7.1,14.6-6.5,22.7,1.5,4.8,4.7,7,9.6,5.4,15.5l25.4,12.4-6.3,6.3-23.3-12-3.5,3.6,17.8,17.6-5.9,6-41.8-41.2h0ZM716.8,719.6l3.4-3.4c4.1-4.2,2.4-7.1-1.8-11.2-4.2-4.2-7.2-5.7-11.6-1.3l-3.1,3.1,13,12.8h0Z"/>
    <path class="st6" d="M716.2,682.4l5.3-6.5,20.8,16.9h.1c0-.1-13.1-26.5-13.1-26.5l5.3-6.5,11.1,23.7,35.9,11.6-5.6,6.9-26.3-9,3.8,8.9,13.7,11-5.3,6.5-45.6-36.9h0Z"/>
    <path class="st6" d="M737.8,654.6l4.8-6.9,48.2,33.5-4.8,6.9-48.2-33.5Z"/>
    <path class="st6" d="M747.1,641.5l4.1-7,36.9,7h0c0-.1-30.5-18.1-30.5-18.1l4.3-7.2,50.6,29.8-4,6.8-36.9-6.8h0c0,.1,30.4,18,30.4,18l-4.3,7.2-50.6-29.8h0Z"/>
    <path class="st6" d="M777.5,616.3c-8.7-4-10-12.6-7.1-18.8,2.9-6.2,10.3-10.8,18.9-6.8l2.7,1.2-3.5,7.6-2.7-1.2c-3.7-1.7-6.5,0-7.8,2.7s-.7,6,3,7.7l28.1,13c3.7,1.7,6.5,0,7.8-2.7s.7-6-3-7.7l-10-4.6-2.8,6.1-6.7-3.1,6.3-13.7,16.8,7.7c8.7,4,10,12.6,7.1,18.8s-10.3,10.8-18.9,6.8l-28.1-13h0Z"/>
    <path class="st6" d="M784.7,563.7l3.6-11.9c2.7-9.1,9.7-12.5,18.8-9.8l26.3,7.9c10.4,3.1,13.8,10,10.9,19.5l-3.4,11.2-56.2-16.9h0ZM835.8,570.2l1.1-3.7c1.3-4.5-.3-6.9-5.2-8.3l-27.1-8.1c-4.4-1.3-7.4-.6-8.8,4.2l-1.1,3.7,41.1,12.3h0Z"/>
    <path class="st6" d="M794.2,529.8l1.8-8.2,57.3,12.7-1.8,8.2-57.3-12.7Z"/>
    <path class="st6" d="M858.3,506l-1.1,7.3-59.8,3.2,1.3-8.8,41.5-.6v-.2s-39.5-12.7-39.5-12.7l1.3-8.8,56.3,20.5h0Z"/>
    <path class="st6" d="M802.2,480.2l.6-8.4,58.5,4.5-.6,8.4-58.5-4.5Z"/>
    <path class="st6" d="M820.6,436.7v8.4h-1.9c-3.9,0-7.1,1.6-7.1,5.9,0,4.6,3.7,5.7,7.6,5.7,4.5,0,6.1-.4,7.9-4.7l2.6-6.4c2.8-7.4,7.6-8.8,16.1-8.7,9.9,0,17.2,3.7,17.1,14.6,0,8.2-6.1,14.3-14,14.3h-3.1s0-8.4,0-8.4h2.6c3,0,6-1.6,6-5.9,0-5.7-3.3-6.1-8.7-6.2-6.3,0-7.3.7-8.9,4.8l-2.5,6c-3,7.2-7.8,9.1-15.1,9.1-8.9,0-16-4.9-16-14.5,0-8.4,6.8-14,13.4-13.9h4.1s0,0,0,0Z"/>
    <path class="st6" d="M803.1,430.1l-.5-8.4,58.6-3.8.5,8.4-58.6,3.8Z"/>
    <path class="st6" d="M815.9,412.3c-9.5,1.3-15.2-5.2-16.2-12-.9-6.8,2.8-14.6,12.3-15.9l30.7-4.3c9.5-1.3,15.2,5.2,16.2,12s-2.8,14.6-12.3,15.9l-30.7,4.3ZM845.4,399.7c4-.6,5.5-3.4,5.1-6.5-.4-3-2.7-5.4-6.7-4.8l-30.7,4.3c-4,.6-5.5,3.4-5.1,6.5.4,3,2.7,5.4,6.7,4.8l30.7-4.3h0Z"/>
    <path class="st6" d="M797.1,380.1l-1.9-7.9,31.3-20.7v-.2s-34.4,8.4-34.4,8.4l-2-8.2,57-13.9,1.9,7.7-31.2,20.9v.2s34.3-8.4,34.3-8.4l2,8.2-57,13.9h0Z"/>
  </g>
  <g id="uuid-cad362b4-fd52-46c9-87cc-ef692089e444">
    <g class="st8">
      <g>
        <path class="st7" d="M853.1,709.3l-68,35.7H83.3l68-35.7s19.8,23.3,81.8,23.3,262.6-23.3,262.6-23.3h357.4Z"/>
        <path class="st7" d="M440.6,481.4s200.6-23.3,262.6-23.3,81.8,23.3,81.8,23.3l68-35.7H290.8v35.7h149.8Z"/>
        <polygon class="st7" points="290.8 445.8 151.3 445.8 83.3 481.4 290.8 481.4 290.8 445.8"/>
        <path class="st7" d="M440.6,569.3s200.6-23.3,262.6-23.3,81.8,23.3,81.8,23.3l68-35.7H290.8v35.7h149.8Z"/>
        <polygon class="st7" points="246.9 569.3 274.4 569.3 342.5 533.6 246.9 533.6 246.9 569.3"/>
        <polygon class="st7" points="173.7 569.3 201.2 569.3 269.3 533.6 173.7 533.6 173.7 569.3"/>
        <polygon class="st7" points="83.3 569.3 110.8 569.3 178.9 533.6 83.3 533.6 83.3 569.3"/>
        <polygon class="st7" points="645.6 657.1 785.1 657.1 853.1 621.4 645.6 621.4 645.6 657.1"/>
        <path class="st7" d="M438.9,657.1h139.5l68-35.7H113.4s73.2,18.9,325.5,18.9,0,16.7,0,16.7h0Z"/>
        <polygon class="st7" points="645.6 218 785.1 218 853.1 182.3 645.6 182.3 645.6 218"/>
        <path class="st7" d="M438.9,218h139.5l68-35.7H113.4s73.2,18.9,325.5,18.9,0,16.7,0,16.7h0Z"/>
        <polygon class="st7" points="689.5 340.1 661.9 340.1 593.9 375.8 689.5 375.8 689.5 340.1"/>
        <polygon class="st7" points="762.7 340.1 735.1 340.1 667.1 375.8 762.7 375.8 762.7 340.1"/>
        <polygon class="st7" points="853.1 340.1 825.5 340.1 757.5 375.8 853.1 375.8 853.1 340.1"/>
        <path class="st7" d="M645.6,340.1h-149.8s-200.6,23.3-262.6,23.3-81.8-23.3-81.8-23.3l-68,35.7s73.2,18.9,325.5,18.9,0,16.7,0,16.7h139.5l68-35.7h29.3v-35.7h0Z"/>
        <polygon class="st7" points="246.9 305.8 274.4 305.8 342.5 270.1 246.9 270.1 246.9 305.8"/>
        <polygon class="st7" points="173.7 305.8 201.2 305.8 269.3 270.1 173.7 270.1 173.7 305.8"/>
        <polygon class="st7" points="83.3 305.8 110.8 305.8 178.9 270.1 83.3 270.1 83.3 305.8"/>
        <path class="st7" d="M636.1,305.8h139.5l68-35.7H310.6s73.2,18.9,325.5,18.9,0,16.7,0,16.7h0Z"/>
        <polyline class="st1" points="601.3 33.1 641.2 183 601.6 288.6 612 374.5 704.1 459.6 686.9 547.7 641.2 622.7 593.9 749.3 626.8 823.4"/>
        <polyline class="st1" points="928.3 811.4 820.4 724.6 837.6 632.8 783.3 566.6 783.3 481.4 835.9 372.3 773.9 307.5 782.5 218.7 832.5 20.6"/>
        <polyline class="st1" points="695.5 308.9 705.8 354.1 742 460.3 723.1 547.7 645.6 658.3 723.8 750.4 725.6 808.2"/>
        <polyline class="st1" points="692.7 298 691.2 291.5 723.1 220.1 704.2 33.1"/>
        <polyline class="st1" points="512.7 663.4 514.7 744.9 468.5 825"/>
        <polyline class="st1" points="465.6 414.5 468.2 477.1 579.3 555 512.1 640.8 512.2 646.7"/>
        <polyline class="st1" points="512.4 223.1 536.2 290 466.4 393.4 465.6 403.6"/>
        <polyline class="st1" points="489 34.2 505.2 202.7 507.3 208.5"/>
        <polyline class="st1" points="-79.1 -29.1 116.3 183.5 86.7 306.8 101.4 377.4 128.1 480.7 105.7 568.8 116.9 623.4 111.7 746.4 -2 808"/>
        <polyline class="st1" points="150.8 36.5 189.2 193.9 172 303.1 199.5 384.6 177.1 480.7 172.8 569.5 234.8 635.7 199.5 743.5 179 826"/>
        <polyline class="st1" points="263.1 35.3 327 166.3 311.5 199.8 274.4 304.6 311.5 395.6 277.9 481.4 270.1 569.5 355.4 641.6 297.7 746.4 344.2 832.2"/>
        <polyline class="st1" points="464.8 664.9 444.1 747.8 407 816.7"/>
        <polyline class="st1" points="328.6 -29.1 421.7 203.4 333.8 272.5 376 395.6 342.5 480.7 433.7 571.7 470.8 640.8 468.2 651"/>
        <path class="st5" d="M295.8-65.4S92.7-41.8,30-41.8s-82.8-23.6-82.8-23.6L-121.6-29.3H447.4v-36.1h-151.6Z"/>
        <polygon class="st5" points="447.4 -29.3 588.5 -29.3 657.4 -65.4 447.4 -65.4 447.4 -29.3"/>
        <path class="st5" d="M153.2,38.8s64-7.4,83.8-7.4,26.1,7.4,26.1,7.4l21.7-11.4H105.4v11.4h47.8Z"/>
        <polygon class="st5" points="105.5 27.4 61 27.4 39.3 38.8 105.5 38.8 105.5 27.4"/>
        <path class="st5" d="M732,38.8s140.9-16.4,184.4-16.4,57.4,16.4,57.4,16.4l47.8-25h-394.8v25h105.2Z"/>
        <polygon class="st5" points="596 38.8 615.3 38.8 663.1 13.7 596 13.7 596 38.8"/>
        <polygon class="st5" points="544.6 38.8 564 38.8 611.7 13.7 544.6 13.7 544.6 38.8"/>
        <polygon class="st5" points="481.1 38.8 500.5 38.8 548.2 13.7 481.1 13.7 481.1 38.8"/>
        <path class="st5" d="M793.1-11.3h-97.9l-47.8,25h374.3S970.3.5,793.1.5s0-11.8,0-11.8Z"/>
      </g>
    </g>
  </g>
  <g id="uuid-7450f59e-38d2-4164-ae0e-edb1d2103c36">
    <g id="uuid-146b18ce-6014-41ea-8ed4-f25a22951e8a">
      <path class="st4" d="M495.8,811.7c-4.2,0-6.4-3.8-7.1-5.1-1.5-2.5-3.6-3-7.2-3.7-2.6-.5-5.6-1.1-8-3.1-6.9-6-9.8-7.9-10.6-8.4l-2.4-.4-.2-.7c-1.2.9-2.6,1.6-4.3,1.6s-3.9-1.1-5-2.9c-1.2-2-2-4-2.4-6,0,0-1.7,1.5-2.3,1.9-1.2,1.1-2.4,2.1-3.7,3.1-.6.5-1.1.9-1.7,1.4-1.9,1.6-3.8,3.2-6.1,4.6-2,1.2-4.1,1.3-5.8,1.4-.5,0-1,0-1.4,0l-3,.4-1.8-2.4c-4.1-5.5-4.9-11.5-5.1-16.6v-2.2c0,0,1.4-1.6,1.4-1.6.6-.6.7-1.6.9-3.8,0-1.2.2-2.6.5-4.1.5-2.1.4-4.5.2-6.6,0-.1,0-.2,0-.3-.1,0-.4-.2-1.1-.4-2.6-.6-5.3-1.3-8.1-2-.6-.1-1.1-.3-1.7-.4-4.6,2.6-9.6,3-13.2,3s-2.7,0-4.2-.2h-1.9c0-.1-1.4-1.5-1.4-1.5-1.3-1.3-2-2.8-2.3-4.1-.8,0-1.6.1-2.5.1-3.5,0-6.6-.8-9.5-2.4-1.2-.7-2.9-1.1-4.7-1.6-.9-.2-1.9-.5-2.9-.8l-3.1-1-.4-3.2c-.7-5.1-.7-8.1,1.8-10.3-.4-2.2-.2-4.3-.1-5.8,0-.8.2-1.7.1-2.3,0-.1-.1-.2-.2-.3-.5-.8-1-1.5-1.4-2.1-.2-.3-.4-.5-.5-.6-6.7-2.2-11.6-7.1-14.4-14.7,0-.1,0-.2-.1-.4-3.5-1-5.6-3.7-6.2-8.1,0,0-.1,0-.2-.1-4.2-4.1-8.4-9.3-8.5-17,0-1.4-.9-3.5-1.2-4.1-1.9-4.4-4-11.1-1.3-18.8.4-1,.4-2.6.4-4.2,0-.8,0-1.6,0-2.4.2-3.6,1.3-6.6,2.3-9.3.7-1.9,1.4-3.7,1.6-5.5.4-2.8,2.1-6.5,5.1-8.1.2-.2.6-1,.8-1.5.6-1.4,1.5-3.2,3.3-4.8,1.6-1.3,3.2-2.5,4.8-3.5.8-.5,1.6-1.1,2.4-1.7-1.1-2.3-2.8-5.6-4-8-2.4-4.7-4.7-9.2-5.7-11.9-1.3-3.6-2.7-7.2-4-10.8l-.2-.4-.3-.3c-5.4-6.1-9.6-13-13.4-19.2-.2-.3-.6-.8-1.3-1.2-4.3-3-6.3-7-7.7-10.6-.7-1.9-2.1-3.8-3.5-5.6l-.7-.9c-3-3.9-6.1-7.9-7.7-13.5-.3-.5-1.6-1.7-2.4-2.5-.4-.4-.8-.7-1.1-1.1-1.1-1.1-2-2.5-3-4.2-1.7-2.7-4.1-6.5-7.1-7.8-.8-.3-1.9-.8-3.2-1.3-8.1-3.2-15.7-6.4-19.5-11.4-2-2.6-4.6-5.2-6.9-7.4-2.1-2-4-3.9-5.5-5.8-2.2-2.8-8.2-8.5-9.7-9.7-3.3-1.8-6.9-4.5-8.6-10.1-.6-1.9-1.2-3.8-1.9-5.7-1.2-3.7-2.5-7.5-3.5-11.4-.1-.5-1.1-1.7-2.6-2.9-2.8-2-13.8-8.9-16.8-10.4-2.5-1.3-6.6-3.4-9.1-7.6-1.7-2.8-3.8-5.7-5.6-8.2-.1-.2-.5-.5-.8-.8-.5-.5-1.1-1-1.7-1.7-.1-.2-.3-.3-.4-.5-1-1.1-2.4-2.8-2.8-5.2-.2-1.6-1.3-3-3.1-5.1l-.2-.2c-2.1-2.5-4.6-4.9-6.5-6.7-3.2-3-5.4-6.2-6.8-9.8-.7-1.8-4-6.8-5-8-.3-.3-.6-.5-.9-.8-2.5-2.2-6-5.2-6.8-10.4-.1-.2-.4-.6-.6-1-.3-.5-.7-1.1-1-1.7l-1.2-2.1.4-1.1s0,0,0-.1l-.9-.6-.4-1.7c-.2-.7-.7-2.2-.1-4,.4-1.1.3-1.5-.3-2.3-1.6-2.2-2.2-4.7-2.6-6.7,0-.4-.2-.7-.2-1.1-1.7-7.2-1.8-14.4-1.6-20.4v-.9c0-3.3.2-8.9,5.6-12.6,0,0,0-.1,0-.2-.8-1.9-.5-3.7-.2-5.7.1-.8.4-2.3.4-3.1-.3-.3-.6-.5-1.2-.9-1.3-.9-3.2-2.1-4.4-4.8-1.4-3-2.9-8.6-3-12.7,0-3.7,2.2-6.2,6.7-7.3-.1-1.4-.5-3.3-.9-4.9-.4-1.7-.8-3.4-1-5.1-.8-5.7,1.9-16.7,7.7-20.4l.8-.5.9-.2c.5,0,.9-.1,1.4-.1.8,0,1.6.1,2.3.4,1.1-6,4.1-12.8,7-16.1.2-.3.5-.5.7-.7.2-2.9.9-6.6,3.3-9.1.7-.7,1.5-1.3,2.3-1.8,1.2-3.3,1.8-7.2,1.6-8.3-.4-2,0-3.8,1-5.1.4-.5.9-.9,1.4-1.2.2-.7.6-1.4,1.2-2,1-1.1,2.5-1.8,4-1.8,2.4,0,4,1.5,5.3,2.9,1-.2,1.9-.3,2.7-.3,5,0,7.8,3.1,10.2,6.3.6.8,1.3,1.6,2.3,2.5.2.2.3.3.5.5.2-1.8.6-3.6,1.2-5.4,1.1-3.1,2.7-7.7,7.2-7.7s3.4.8,4.4,2.3h0c.3,0,.5,0,.8,0,.9,0,1.6,0,2.3.2.5,0,.9.1,1.2.1s.4,0,.4,0c.8-.3,1.7-.4,2.6-.4,2.7,0,5.5,1.3,7.2,3.5,1.4,1.7,1.9,3.9,1.5,5.9.1.2.3.4.4.6.4.6,1,1.3,1.5,2.3.9,1.8,1.7,4.8,3,9.9.2.6.3,1.3.5,2,3.3-4.3,8-7,10.7-8.5.3-.2.6-.3.8-.5.9-.5,2-.8,3-.8,5,0,6.5,5.2,7.9,10.2.3,1.2.8,2.9,1.3,4.1,5.5,1.3,9.1,5,9.6,10.2l.3,3.2-2.7,1.7c0,0,0,.2,0,.3,0,.1,0,.3,0,.4,1.1,1.2,2.2,2.6,3.2,3.9l1.2-1.7c2.3-3.3,4.9-3.9,6.7-3.9,3.3,0,5.4,2.2,6.5,3.4,0,0,0,0,0,0h0s.7.6.7.6c4.3,3.6,4.1,11,3.9,12.7-.5,3.2-.9,6.1-.6,8.5.4,3.2.9,6.4,1.6,9.4l.2-.4,2.4.4c0-.9.4-1.7.9-2.5,1.5-2.4,4.6-3.4,7-3.4s1.2,0,1.8.2c1.5.4,3.8,1.2,5.4,2.9,3.9,4,6.1,9.7,6.2,15.4l3.4-1.7,2.6,3.4c.7.8,1.3,1.6,1.9,2.4,1.5,1.8,2.8,3.5,4,5.4.2.4.5.8.8,1.1,1.6,2.4,4.3,6.4,2.2,11.9,0,.4.3,1.1.4,1.6.2.9.5,1.9.7,2.9.3,2.3.7,4.6,1,6.9.2,1.3.4,2.6.6,3.9.8-.3,1.7-.4,2.6-.4,2.4,0,4.3,1,5.8,1.8.4.2.9.5,1.2.6.2-.2.6-.6,1-1.3,1.1-1.6,3.2-5,6.9-5s3.1.6,4.2,1.8c2.2,2.4,2.1,5.9,1.7,11.9,0,1.3-.2,3.2-.2,3.8.3,2.8,0,5.5-.3,7.9,0,0,0,0,.1,0,1-.6,2.2-.9,3.5-.9s3.1.5,4.1.9c.2,0,.7.1,1.1.1,2.9.4,8.3,1,12.4,6,2.7,3.2,2.3,5.9,1.5,7.6-.9,1.8-2.3,2.7-3.8,3.2,1,.6,1.9,1.2,2.9,1.9,3.4,2.2,6.5,4.2,10,5.7,5.9,2.5,6.5,9.2,6.7,12.4,0,.9,0,1.9-.2,2.9,2.6-1,5-1.6,7.3-1.6,5.6,0,9.3,3.5,12.6,7l1.1,1.2.2,1.6.3,1.8c.2,1,.3,2.1.5,3,.6-.2,1.2-.3,1.7-.3,4.7,0,5.5,4.7,5.9,7,0,.4.2,1,.2,1.3,1.2,2.4,2.4,2.9,4.3,2.9,1.8,0,3.2.8,4,1.5.5-.1.9-.2,1.4-.2,1.7,0,3.2.7,4.3,1.9,2.3,2.4,2,5.8,1.7,9.8,0,1.2-.2,2.6-.1,3.2.4,3.7-.5,6.8-2.6,9.6-.1.2-.6,1.2-.7,3.1,0,1.7-.5,3.3-.8,4.7-.6,2.7-.8,3.9-.3,4.5.2.2,1.8.9,5.3.9s5.7-.5,7.2-1c1-.3,1.9-.5,2.9-.5,6.3,0,7.5,6.3,7.9,8.7,0,.5.2,1.2.3,1.6,2.7,4.6.5,8.8-.6,11l-.2.4c-.6,1.2-1.3,2.1-1.9,2.9-.2.3-.5.6-.6.9.2.7.3,1.4.6,2.2h.1c1.9-.8,3.9-1.2,5.9-1.2,5.5,0,9.7,3.3,12.4,5.6,4.6,3.7,5.3,10.3,1.5,15.1-1.7,2.2-3.8,4.3-6.1,6.1-1.6,1.3-3.3,2.3-4.9,3.4-1,.7-2,1.3-2.9,1.9,0,0,0,0-.1,0,3.3.9,6,2.6,8.3,4.2.7.5,1.6.9,2.5,1.4.5.3,1.1.6,1.6.8l2.1,1.2c1.1-1.3,2.1-2.6,3.2-3.9,2.2-2.4,2.4-4.2,2.4-5.4-.1-4.8,1.9-8.9,5.8-12.1.2-.2.6-.8,1-1.3.4-.5.7-1,1.1-1.5l.9-1.2c-.2-.6-.5-1.2-.9-2-.8-1.7-1.6-3.5-2.1-5.7l-.4-1.6.6-1.5c.3-.6,1.2-2,2.5-3.3l.4-3.8c.8-6.9,6.1-11.6,13.4-11.8,0-.2,0-.3.1-.4.2-6.9,3.6-11.4,10.5-13.9,2.2-.8,4.3-1.5,6.6-1.7,0-.2,0-.4-.1-.6-1.2-5-1.1-9.4.4-13.6.3-.8.6-1.6.9-2.4.8-2.3,1.5-4.2,1.6-6.1.1-2.4,1.3-4.1,2.2-5.4.2-.3.4-.7.6-.9l1.4-2.6,9.8-.2,1,.5c.4.2.7.3,1.1.5.3-.8.7-1.6,1.1-2.3,3.2-5.4,10.1-9.2,16.8-9.2s1.5,0,2.3.2c9.1-1.7,15.5-5.2,17.4-9.8.7-1.6,1.4-3,2.1-4.4.4-.8.9-1.6,1.2-2.5.6-1.3,1.3-2.7,1.9-4.1,1.3-2.8,2.6-5.8,4.2-8.6,1.3-2.5,3.6-5.7,7-7,.6-.2,1.3-1,2.1-1.8,1.3-1.3,3-3.1,5.6-4.1.2-.4.4-1.1.6-1.8,1.4-4.5,3.6-8.2,6.7-11.3,3.2-3.3,6.9-4.9,11.1-4.9h.8c.3,0,.7,0,1.1,0,2.6-9.4,9.6-17.8,12.8-21.6.3-.4.6-.7.9-1,1.9-2.3,4.5-3.5,7.4-3.5s4.4.8,6.2,1.8c.4-.4.8-.9,1.3-1.4,4.4-4.6,9.3-9.8,8.7-17.3,0-1-.3-3.9,1.7-6.1,1.1-1.2,2.7-1.9,4.4-1.9s3.8,1,5.2,1.9c.2.1.5.3.8.5h.6l1.2.6c2.3,1.3,4.3,2.8,5.8,4.8,1.1-1.3,2.5-2.6,4.6-3.6,0-.1.4-.6.6-2v-.2c0-.5,0-1.2.1-3,.2-4.1,2.7-6.6,7.6-7.6.2,0,.4,0,.6-.1,1.4-2.1,3.4-3.6,4.9-4.6,1.5-.9,3.1-1.4,4.7-1.4,4,0,7.3,2.8,8.3,6.9.6,2.5,1.2,5.4,1.4,8.6,0-.1.2-.2.3-.3.9-1,1.4-1.6,2.5-4.6,1.3-4,4.7-5.1,6.4-5.6.8-2.6,3.5-4.3,7.9-5.2h.5c0,0,.6,0,.6,0,.8,0,1.6.1,2.3.4,1.3-1.9,3.2-3.9,6.2-3.9,5.2,0,6.4,5.4,7.2,8.6.1.6.3,1.4.5,2.1.9.3,1.6.8,2.1,1.4,1.3-2,3.2-4.7,6.4-4.7s3.2.7,4.2,2c2.2,2.7,1.6,6.2,0,14.6-.4,2.1-.8,4.5-1.1,6.3.6,0,1.1-.2,1.7-.3,1.6-.3,3.2-.6,4.6-.6,4,0,5.6,2.4,6.1,3.4,1.8,3.8-1,7.4-2.2,9-6,7.7-8.1,13.7-9.1,16.9-.2.6-.4,1.1-.5,1.6-.8,2.1-1.6,4.1-2.5,6.1-1.2,2.9-2.4,5.7-3.3,8.5-1.3,3.9-2.6,8.1-3.1,12.2-.6,5.1-.8,10.2-1,15.6,0,2.3-.2,4.7-.3,7v1.8c-.1,0-1.3,1.4-1.3,1.4-2.5,2.7-3,6.6-3.6,11.1-.2,1.6-.4,3.3-.8,5l-.3,1.5-1,1.1c-.5.5-1,.9-1.4,1.3,0,0,0,0,0,0-.5,3.4-2.5,5.6-3.8,7-.4.4-.8.8-1,1.1l-.5.7c-1.3,1.8-2.5,3.5-3.2,5.1-1,2.5-2.6,3.8-3.8,4.9l-.3.3c-3.1,2.9-4.8,4.9-4.7,7.8.2,9.5-1.5,16.9-5.5,23.3,0,.1-.2.7-.3,1.1-.1.6-.3,1.1-.5,1.7l-.5,1.5-1.3,1c-.4.3-.9.6-1.3,1-1.3.9-1.3,1-1.4,1.2-.5,3-2.8,4.8-4.3,6-.3.2-.5.4-.8.7-.8.7-1.6,1.3-2.2,1.8-.6.5-1.2.9-1.6,1.3-3.9,3.9-8.2,8.3-14.4,10.7-.2,0-.7.5-1.1.8-.5.4-1,.8-1.7,1.3-.2.1-.3.2-.5.4-.9.7-2.3,1.7-4.2,2.1-2.3.5-4,2.1-6.5,4.5-2.2,2.2-12.5,9-16.6,9h-.1c-4.6,0-7.6.9-10,3-1.5,1.3-3.4,2.2-5.9,2.8-1.8.4-3.3,1.6-5.4,4.3-1.1,1.5-2.2,3.1-3.3,4.9-.9,1.5-1.9,3-3,4.6-2.8,3.9-16.2,19.9-25.1,19.9s-1.2,0-1.8-.2c-.9,1-2.5,2.3-4.9,2.5-3,.2-5.7,1.7-8.8,3.4h-.2c-1.5.9-3,1.2-4.1,1.4-.2,0-.4,0-.6.1-6.5,1.4-13.9,3.1-20.5,6.6-.5.2-.9.5-1.4.7-3.8,1.9-5.8,3.1-6.5,5.7-.5,2.1-2,3.3-2.7,3.9h-.1c-1,1-2.1,1.8-3.1,2.6-2,1.6-3.8,3.1-5.6,4.7-.7.6-1.4,1.4-2.1,2.1-1.9,2-4.2,4.5-7.7,6.1-.4.3-1.4,1.8-2,2.8-.4.6-.7,1.2-1.1,1.7-.7,2.1-1.9,4.3-5.9,6.9-1.5.9-2.5,1.4-3.4,1.8-3,4.2-6.9,6.5-10.4,8.3l-.7.4c-2.1,1.1-3.9,2-4.9,3.5-3.6,5.1-7.3,9.2-11.3,12.4.6-.1,1.2-.3,1.7-.4,6.2-1.7,11.4-2.5,16.4-2.5s2,0,3,.1c3.7.3,7.1,1.2,10.3,2.1,1.7.5,3.2.9,4.8,1.2,1.9.4,3.2,1.5,3.9,2.1.1.1.2.2.4.3l.9.5c1.3.7,2.6,1.5,3.7,1.8,1.4.5,2.9.7,4.9,1.1l1.4.2c3,.5,4.3,2.2,5,3.5.9,1.8.6,3.5.2,4.8.8,1.4,1.6,3.6.3,6-.4.7-.9,1.4-1.7,2,2.6,1.4,4,2,5.8,2s.6,0,1,0h.3s.3,0,.3,0c2.6,0,4.2,1.7,5,2.5,0,0,.1.1.2.2,1.2,1.1,1.7,2.3,2.1,3.1,0,0,0,0,0,.1,0,0,0,0,.1,0,.6.2,1.2.2,1.7.2s1,0,1.7-.2c.8-.1,1.7-.3,2.8-.3h2s8.4,7.3,8.4,7.3l.4,4c.3,0,.5,0,.8.1.7.1,1.6.2,2.5.3,3.6.4,8.5.9,11.5,5.3,1.2,1.7,2.5,2.1,4.8,2.5l2,.4,7.1,9.8,12.9,1.7,3.2,4.9c2.5,0,4.7-.1,6.7-.8,1.4-.5,2.7-.7,3.9-.7,1.8,0,7.2.6,8.2,7.9,3.4,3.5.9,8.6-.2,10.9-1.2,2.4-4.2,6.4-11.7,6.4s-13.6-2.8-16.3-6c-.8-1-1.4-1.8-1.8-2.5-4.1-.1-7.8-1.9-11.2-5.3,0,0-.2-.2-.3-.3h-.3c-1.3,0-4.4,0-7.1-2.3-.9,0-2,0-2.9,0h-2.6c-4.5,0-8.5-.2-11-2.7-.4-.4-.8-.9-1.1-1.5-.9.1-1.9.3-2.9.5-2.5.4-5.3.9-8,.9s-5.9-.8-7.9-2.3c-3.5-2.8-3.9-3-5.8-3.5-1.1-.3-2.3-.4-3.6-.6-2.4-.3-5.2-.7-7.9-1.9-4.1-1.9-5.6-2.6-7.2-2.6s-2.6.3-5,.9c-.9.2-1.7.5-2.4.8.9,1.9,1.7,4.7.2,8.1l-.6,1.4-1.2.8c-1.5,1.1-3.4,1.6-5.5,1.6s-4.2-.6-6.1-1.1c-.5-.1-1-.3-1.5-.4h-.1c-.8,0-2,.2-3.2.4-1.7.3-3.5.6-5.2.6-2.5,0-4.5-.7-6-2.1-.3-.2-.5-.5-.8-.7-1.3-1.3-2.2-2.1-4.3-2.7-.1.2-.3.4-.5.7l2.2,1.1-.2,3.5c0,.1,0,.3,0,.5.5,0,.9.1,1.3.2.6,0,1.2.2,1.9.2,3.6.3,6.8,2.2,9.2,3.8,1.8,1.3,3.2,2.8,4.6,4.2.5.5,1,1.1,1.6,1.6l1.2,1.1.3,1.6c1.5,8.3-3.1,11.8-6,13.1l-.8.4h-.9c-1.8.3-3.3.4-4.7.4-4.2,0-7.6-.9-10.6-2.8-.7-.5-1.3-.6-2.2-.6h-.3c-1.6,0-3.2,0-5.1.1h-.4c-1,1.4-2.3,3.1-4.1,4.4-1.9,1.4-3.9,2-5.7,2.6-.9.3-1.7.6-2.4.9-.2.1-.5.3-.8.5.3,2.8,1.5,5.3,3.7,7.9l1.5,1.7-.3,2.2c-.3,2.9.4,5.6,2.4,8.9.8-.2,1.9-.5,3.2-.5,1.9,0,4.8.6,7.2,3.6,2,2.4,3.4,5.7,3.6,8.7,0,.6.1,1.3.2,2,.3,3.1.7,6.8-.9,10.7,1.1,2.7,1.1,5.2,1.1,7.2s0,1.8.1,2.4l.6,3.4v.6c-.8,11.5-3.7,17-9,17h0v-.2ZM462.3,553.8c1.2-.2,2.4-.2,3.7-.2h.1c0,0,.5,0,1.6-.6,1-.5,2.1-1.3,3.2-2.2,1.5-1.2,3.2-2.5,5.4-3.5.1,0,.5-.5.6-1-.7.5-1.3.9-1.8,1.3-1.6,1.3-3.5,1.9-5.8,1.9s-2.2-.1-3.1-.3c-.8,2-2,3.4-3.8,4.4v.2c-.1,0-.1,0-.1,0Z"/>
      <path class="st5" d="M220.8,214.6c.7,0,.9,2.3,1.3,2.9,1.1-.2,2.3-.5,3.6-.6.2,0,.3,0,.5,0,1.2,0,2.3.3,3.6.3s1.4,0,2.1-.3c.3-.1.6-.1.9-.1,1.9,0,4.1,1.7,3.7,3.3-.7,3,1.4,4.3,2.4,6.2,1.6,3.3,4.7,20.2,7,22.6.4.4.7.6,1,.6,1.4,0,1.6-4.6,1.9-6,1.6-6.6,9.6-10.6,12.2-12.1.1,0,.3-.1.4-.1,2.4,0,3.6,13.6,6.5,13.9,3,.3,6.7,1.9,7.1,6-1.4.9-9.9.8-4.7,2.9,5.2,2.1,0,1.4-.1,2.5,2.5,1.5,6.5,5.7,7.8,9,1.3,3.2-7,1.8-7.7,3.2,2,2.1,4.6,3.8,3,7.1,0,.1,1.1.9,1.7,1.3,1.4-1.2,2.8-2,3.7-3.3,1-1.4,1.3-3.2,2.1-4.7.6-1.2,1.6-2.2,2.3-3.3,1.1-1.5,0,0,3.1-4.3.9-1.3,1.8-1.8,2.5-1.8,1.7,0,3,2.5,4,2.8,2.1,1.8,2.3,6.5,2.1,8-.5,3.3-1,6.7-.6,10,.7,5.7,1.9,11.3,3.6,16.9.5,1.7,1.2,2.8,2.9,2.8s.5,0,.8,0c.9-1.8,1.7-3.6,2.6-5.5.8.1,1.4.2,2.3.4.2-1.8,3.8-1.8,2.3-5-.3-.7,1.3-1.5,2.7-1.5s.4,0,.6,0c1.1.3,2.2.7,3,1.5,4,4,5.6,10.8,4.2,16.3,1.4.8,2.8,1.6,3.9,2.2,1.2-.6,2.5-1.3,3.7-1.9,2.2,2.8,4.1,4.9,5.6,7.3,1.6,2.6,4.1,5,2.4,8.9-.8,1.8.6,4.5.9,6.7,1,6.6,1.9,13.3,2.9,19.9,0,.5.7.9,1.4,1.7,1.2-2.3,2.3-4.4,3.4-6.5.5-.3,1-.4,1.5-.4,2.3,0,4.6,2.6,7.3,2.6s3.3-.9,5.1-3.8c1.2-1.9,2-2.7,2.6-2.7,2,0,.2,10.2.6,13,.4,3.3-.4,6.8-.7,10.1,1.9,1.2,3.6,2.4,5.5,2.4s1.8-.2,2.7-.8c.3-.1.6-.2.9-.2.8,0,1.7.3,2.4.5,1.9.8,7.4,0,11.3,4.6,2.1,2.6,0,2.9-2.2,2.9s-1.1,0-1.6,0c-1.2,0-2.2,0-2.3.6-.9,4.2.2,5.5,4,7.8,4.9,3,9.4,6.4,14.8,8.7,2.9,1.2,3.3,5,3.6,8.1.2,2.3-2.3,8.9-.8,8.9s.6-.2,1-.5c1.1-.8,1.8-1.1,2.2-1.1,1,0,1.2,1,1.7,1s.1,0,.2,0c3.4-1.4,5.8-2.2,7.9-2.2,3,0,5.3,1.7,8.8,5.4.3,2.1.6,4.2,1,6.3.1.7.5,1.4.9,2.5,1.1.3,2.6,2.6,3.8,2.6s.9-.4,1.2-1.3c.2-.8.5-1.1.6-1.1.6,0,.9,4,1.4,5.1,1.8,3.8,4.6,6.1,9,6.1,1.2,0,1.8,1.8,3.5,1.8s.9-.1,1.4-.3c.2,0,.4-.1.6-.1,2.1,0,.5,7.1.8,10.2.2,2.1,0,4-1.6,6-1.2,1.5-1.6,3.9-1.7,6-.2,4-3.1,8.9.1,12.7,1.7,2,5.5,2.8,9.3,2.8s6.7-.6,8.9-1.3c.5-.2.9-.2,1.2-.2,3.1,0,2.4,5.5,3.7,7.7,1.4,2.4.1,4.5-.9,6.6-.8,1.5-2.1,2.8-2.9,4.3-.4.8-.3,2-.1,2.9.4,2,1.1,4,1.7,6.1h.2c1.2,0,2.4.2,3.5.2s1.5,0,2.2-.4c1.4-.6,2.7-.9,4-.9,3.5,0,6.4,2.2,9.2,4.4,2.4,1.9,2.6,5.4.7,7.9-1.5,1.9-3.3,3.7-5.2,5.2-2.4,1.9-5.2,3.4-7.7,5.1-2.3,1.6-6.1,1.4-7.3,5.4-1.2,4,4.2,3.2,6.7,3.4,3.4.4,6.1,2.1,8.8,3.9,1.4,1,3,1.7,4.6,2.5.3,2.7-.2,5-1.3,7-3.3,2.2-6,3.7-8.4,5.6-.7.6-1.6.8-2.6.8-1.7,0-3.6-.6-5.1-.6s-2.1.4-2.4,1.8c-.7,4.2-2.1,3-3.1,4.3-6,2.1-7.9,2.7-11.2,2.7s-3.3-.1-6-.3c.5,1.2-2,1.2,1.2,3,3.3,1.8,8.2,3.5,8.8,5,1.1.6,2.2.9,3.3.9s2-.3,2.9-.7c2.6-1.3,5.4-1.8,8.3-1.8h.1c1.3,0,2.6-.5,3.8-1.1,3.1-1.5,5.4-4.2,8.6-5.7,2-.9,3.9-3.7,3.6-6.8-.2-1.7.6-2.8,1.4-4.2,2.8-4.9,5.9-9.4,9.7-13.6,2.3-2.5,3.8-5.4,3.7-8.9,0-3.4,1.3-5.9,3.9-8,1.1-.9,1.8-2.2,2.9-3.6.4,0,1.3.2,2.2.3,1.7-5.1-2.2-8.8-3.2-13.6.4-.8,3-3.3,3.6-3.3s0,0,0,0c.9,1.2,1.6,2.6,2.3,3.9,1.3-2.2,3.1-.7,2-7-.9-.2-3.6-2-4.7-2.2.5-4.9,4.3-7.2,8.8-7.2s1.8.1,2.8.3c.7-1.8,1.9-3.8,2-5.7.1-5,2.5-7.6,7.1-9.2,2.2-.8,4.3-1.5,6.6-1.5s2.6.2,4,.7c-.3-2.7-.2-5.2-.8-7.6-.8-3.7-1-7.2.2-10.8,1.1-3.2,2.6-6.4,2.8-10,0-1.4,1.3-2.7,2.1-4.1,1.9,0,3.6,0,5.6,0,6.3,2.8,9.4,14.4,12,15.3.3.1.6.2.8.2,1.5,0,.3-2.8,0-3.4-1.2-2.6,0,0-4.4-8-4-7.3,4.8-14.6,12.6-14.6s1.6,0,2.3.2c17.3-3,21.1-10.8,22.1-13,1-2.3,2.2-4.4,3.3-6.7,2-4.2,3.7-8.4,5.9-12.5,1-1.8,2.5-3.9,4.3-4.6,3.5-1.3,4.8-5.3,8.7-6.2,1.2-.3,2.1-3,2.7-4.7,1.1-3.6,2.9-6.6,5.5-9.3,2.1-2.2,4.5-3.4,7.5-3.4h.8c1.7,0,3.4-.2,5.3-.2,1.1-10.5,10.6-20.9,13.4-24.3,1-1.2,2.2-1.7,3.4-1.7,2.4,0,5.1,1.8,7.1,3.8,2.8-5.2,15.3-12.5,14.3-26.3-.1-1.8.3-2.4,1-2.4,1.4,0,3.9,2.3,5.3,2.3h0c5.4,2.9,7.4,7.9,7.4,14.1,2.5-.9,3-2.7,3-4.3,0-3.7,1-6.7,4.7-8.5,2.2-1.1,3-3.5,3.3-5.9.2-1.1,0,0,.1-3.7s5.4-1.7,7-4.5c.8-1.5,2.3-2.7,3.7-3.6.7-.4,1.4-.6,2-.6,1.5,0,2.9,1.1,3.3,3,1.4,5.7,2,11.4.4,17.2-.7,2.4-.7,4.9-1.1,7.4-.2,1.1-.5,2.2-.9,3.3-1.5,4.3-3.1,8.6-4.6,12.9-.2.5.1,1.1.2,1.8,2.5-4,4.8-7.7,7.1-11.5.2-.3.5-.7.5-1,0-3.6,2.3-6.5,3.2-9.7,1.1-3.9,3-6.9,5.7-9.8,1.5-1.6,2.3-2.9,3.5-6.4,1.2-3.5,6-1.2,6.4-5.6,0-.8,2.5-1.5,4-1.8h0c1,0,.7,4.6,1.9,4.6s1.7-1.2,3.6-4.7c1.3-2.4,2.2-3.3,2.9-3.3,2.3,0,2.1,10.4,5.2,10.4s.3,0,.4,0h0c1.6,0,1.9,4.5,3.8,4.5s2.3-1.2,4.5-4.6c1.2-2,2-2.8,2.4-2.8,1.9,0-2.2,15.2-2.1,19.9-.5,2.5,1.1,3.2,3.2,3.2s6.3-1.1,8.4-1.1c1.8,0,2.4.9-.1,4.1-7.6,9.7-9.5,17.2-10.5,19.8-1.9,4.9-4.2,9.7-5.9,14.8-1.5,4.3-2.8,8.8-3.3,13.3-.8,7.5-.9,15.1-1.3,22.9-4.6,5.1-4.3,12-5.6,18.7-.8.9-2.8,2.1-2.7,3.1,0,3.3-2.4,4.7-3.9,6.8-1.6,2.2-3.3,4.4-4.3,6.8-.7,1.6-1.6,2.3-2.8,3.4-3.4,3.1-6.5,6.5-6.4,11.7.2,7.2-.8,14.1-4.7,20.4-.7,1.1-.8,2.5-1.3,4-1.8,1.4-4.1,2.3-4.6,5.3-.2,1.4-2.2,2.6-3.5,3.8-1.3,1.2-2.8,2-4,3.2-3.7,3.8-7.5,7.6-12.6,9.5-1.4.5-2.5,1.8-3.8,2.6-.9.6-1.9,1.5-2.9,1.7-3.8.8-6.4,3.3-9,5.8-2.6,2.6-11.4,7.5-13,7.5h-.1c-4.9,0-9.5.9-13.4,4.3-1,.9-2.4,1.3-3.7,1.6-3.7.9-6.1,3.4-8.3,6.2-2.3,3-4.1,6.5-6.4,9.6-5.3,7.4-16.2,17.7-20.9,17.7s-.6,0-.9-.1c-.7-.3-1.2-.4-1.7-.4-2.4,0-2.7,2.7-4.5,2.8-4.3.3-7.7,2.2-11.2,4.2-1,.5-2.2.7-3.3.9-7.5,1.6-15,3.4-21.9,7-4.4,2.3-9.1,4.2-10.5,9.7-.1.5-.7.9-1.2,1.3-2.9,2.5-6,4.8-8.9,7.4-2.8,2.5-4.7,5.7-8.4,7.4-2.3,1.1-3.8,4.2-5.4,6.6-.7,1.1-.1,2.5-4.2,5.1-4.1,2.6-3,.4-4.7,2.9-2.2,3.3-5.4,5.2-8.8,7-2.7,1.4-5.5,2.7-7.4,5.4-4,5.7-8.7,10.8-14.7,14.5-3.3,2-6.6,3.1-9.7,6.7-3,3.6,3.5,3.8,3.9,4.1,2.2-.4,1.8-3.3,3.5-3.5,4.4-.6,8.9-.7,13.1-1.8,5-1.4,9.9-2.3,15-2.3s1.8,0,2.6,0c4.9.3,9.6,2.2,14.4,3.2,1,.2,1.8,1.3,2.8,1.9,1.8,1,3.6,2.1,5.6,2.8,2.2.7,4.3,1,7,1.5,2.7.5.3,2.3.3,3.5,0,1.3,3.6,3.8-.2,3.8-1.5,0-2.7,0-3.9,0-1.8,0-3.5-.2-6.1-.9-1.2-.4-2.5-.5-3.8-.5s-1.2,0-1.8,0c-.2,0-.5,0-.8,0h-.9c-1.4,0-2.9.1-3.1,1.3-.3,1.7,7.1,4.4,10.9,6,.9.4,1.6.5,2.3.5,1.2,0,2.1-.4,3.4-.4s2.1.2,3.6,1.1c4.1,2.2,6.8,3.8,10.5,3.8s1,0,1.5,0h0c.5,0,1.1.8,1.6,1.3,1.5,1.4.9,3.5,4.6,4.5,1.2.3,2.1.4,2.9.4,1.8,0,3-.5,4.5-.5,2.2,1.9,3.9,3.4,5.4,4.7.2,2.2.4,3.9.7,6.1,1.6.2,3.1.4,4.5.6,3.7.7,8.4.2,10.6,3.4,2.4,3.5,5.6,4.2,8.1,4.6,2.9,4,5.2,7.1,7.2,9.9,4.4.6,8.2,1.1,12.8,1.6.9,1.4,2.1,3.2,3.4,5.2.1,0,.5.1.8.1h0c3.4-.2,6.8,0,10.3-1.2.9-.3,1.6-.4,2.3-.4,2.2,0,3.1,1.6,3.2,4.7,0,2.3,3.4,0,.1,6.7-1.2,2.6-4,3.5-7.1,3.5-5.1,0-11-2.5-12.4-4.1-2.2-2.6-2.2-4.3-4.9-4.3h-.5c-3.2,0-5.7-1.5-7.9-3.8-.7-.7-1.5-1.3-2.1-1.9h-.5c-.5,0-1.1,0-1.6,0-1.7,0-3.2-.2-4.4-1.8-.3-.4-1.1-.4-1.6-.5-1.2-.1-2.6-.1-4-.1h-2.6c-3.2,0-6.2-.1-7.3-1.2-1.8-1.8,1.9-2.8-2.4-3.2-.2,0-.4,0-.6,0-3.2,0-8.4,1.5-12.6,1.5s-3.5-.3-4.6-1.2c-3.8-3-4.8-3.7-7.8-4.5-3.5-.9-7.4-.7-10.5-2.2-4.4-2.1-6.6-3.1-9.4-3.1s-3.6.4-6.4,1.1c-2.7.8-5.4,1.9-7.3,4.2.2,2.7,3.2,4.4,1.7,7.7-.7.5-1.6.7-2.6.7-2,0-4.4-.8-6.5-1.3-.4,0-.8-.1-1.2-.1-2.4,0-5.9,1-8.4,1s-2-.2-2.5-.7c-2.1-2-3.8-4.1-9.3-5-.7-.1-1.3-.2-1.8-.2-3,0-1,2.2-2,3-.6.5-1.5,1-1.6,1.6-.4,1.4-.7,3-.4,4.3.2.7,1.9,1,2.9,1.5,0,1.2.6,4.6,1.2,5.9.4,0,.9,0,1.3,0,1.8,0,3.7.4,5.5.5,2.3.2,4.7,1.6,6.7,3,2,1.3,3.5,3.3,5.5,5.3.6,3.1.3,6-3.1,7.6-1.4.2-2.8.3-4.1.3-2.8,0-5.4-.5-7.8-2-1.7-1.1-3.2-1.4-4.9-1.4h-.5c-2.3,0-4.6,0-8.1.1-1.2,1.5-2.5,3.9-4.4,5.3-2.1,1.5-4.9,1.9-7.3,3.1-1.5.7-2.7,1.9-3.8,2.7-.2,5.7,1.9,9.9,5,13.6-.6,4.9,1.1,9,3.5,12.8,1,1.6,2.1,2,3.1,2s2.7-.7,4.1-.7,2.2.4,3.3,1.7c1.3,1.5,2.2,3.8,2.4,5.7.2,3.6,1.1,7.3-.6,10.9-.4.8-.5,2.1,0,2.8,1.6,2.9.7,6.1,1.2,9.1l.5,2.8s-.8,12.2-3.9,12.2-1.6-.7-2.7-2.5c-4.3-7.5-12.8-5.1-16.3-8.2-10.5-9.2-12.5-9.5-12.5-9.5-.4-1.2-1.3-2.3-2.3-3.2-.2-.2-.4-.2-.6-.2-1.6,0-4.2,3.7-5.6,3.7s-.5-.1-.6-.4c-1.3-2.2-2.1-4.5-2.1-7.1,0-4.9-.6-5.4-5.7-8.1-1,2.9-2.1,5.8-3,8.4-1.8,1.5-3.5,3-5.2,4.4-2.3,1.9-4.6,4-7.2,5.5-1.3.8-3.3.5-5.2.8-3.2-4.2-3.8-8.9-4-13.7,2.8-2.9,1.9-6.9,2.7-10.3.6-2.6.5-5.4.3-8.1-.2-3.1-2.1-4.6-5.1-5.3-3.7-.8-7.4-1.8-11.9-3-3.3,2.6-7.6,3.4-12.2,3.4s-2.6,0-3.9-.1c-3.3-3.4,2.9-7.9-1.7-11.5-.8,1.8-1.5,3.5-2.4,5.5-1.5.2-2.9.4-4.4.4-2.3,0-4.6-.4-7-1.7-2.6-1.5-5.7-1.9-8.5-2.8-.5-3.9.7-6.4,3.6-7.4-3.8-3.5-.9-8.2-2-12.3-.8-1.3-1.6-2.6-2.5-3.8-.7-.8-1.5-1.8-2.5-2.1-6-1.8-9.5-6.2-11.6-11.7-.7-1.8-1.2-3-3.3-3.4-2.2-.4-2.6-2.5-2.9-4.5-.1-1.2-.7-1.8-1.6-2.6-3.7-3.6-6.9-7.7-7-13.4,0-2-.8-4.2-1.6-6.1-2.1-4.9-3-9.8-1.2-15.1.9-2.5.6-5.4.8-8,.3-5.2,3.2-9.4,3.9-14.4.2-1.6,1.2-3.6,2.5-4.4,2.8-1.6,2.8-5,4.9-6.8,2.2-1.9,4.7-3.3,7.1-5,.2-.2.6-.2.9-.2h.7c1,0,1.9-.2,1.4-2.5-.9-3.6-9.2-18.1-10.9-23-1.4-4-2.9-7.9-4.4-11.8-.2-.5-.7-.9-1.1-1.4-5-5.6-8.9-12-12.8-18.4-.7-1.1-1.7-2-2.7-2.8-3-2.1-4.5-5-5.8-8.3-1-2.5-2.6-4.7-4.2-6.8-3-3.9-6.1-7.7-7.5-12.7-.5-1.9-2.7-3.7-4.9-5.8s-5.3-10.2-11.6-13c-4.4-1.9-16.6-5.8-20.6-11.1s-9.7-9.7-12.4-13.2c-2.8-3.6-10.4-10.6-11-10.9-3-1.6-5.3-3.4-6.5-7.3-1.8-5.6-3.8-11.1-5.3-16.9-.6-2.2-2.7-4.3-4.6-5.8-2.9-2.1-14.2-9.2-17.5-10.8-2.6-1.3-5.4-2.8-7.1-5.6-1.8-2.9-3.8-5.7-5.8-8.6-.8-1.1-1.9-1.8-2.7-2.8-.8-1-1.9-2-2.1-3.2-.5-3.3-2.5-5.6-4.5-7.9-2.1-2.5-4.5-4.9-6.9-7.2-2.4-2.3-4.3-4.8-5.6-7.9-1.1-2.8-5.5-9.2-6.2-9.8-2.6-2.4-5.6-4.4-6.2-8.5-.2-1.4-1.4-2.7-2.2-4.2.3-.8-.7-3.9-1.6-4.6,0-.4-.3-.8-.2-1,.9-2.5.7-4.7-1-7-1.2-1.6-1.5-3.9-2-5.9-1.5-6.3-1.6-12.7-1.4-19.1.1-3.5-.2-7.2,3.8-9.6,1.8-1.1,2.5-3.9,1.3-6.4-.5-1.2,1.8-6.9,0-9.4s-4.2-2.6-5.4-5.1c-1.2-2.5-2.5-7.4-2.5-10.6,0-3.2,6-1.3,6.6-4.9.6-3.6-1.3-8.7-1.9-13.1-.6-4.4,1.9-13.1,5.4-15.4.1,0,.2,0,.4,0,1.4,0,2.9,1.6,4.7,1.6s1.5-.3,2.3-1c-.6-6.2,4.9-19.2,8.1-19.3-.3-4.4.8-9.5,4.2-9.6,2-4.1,3.4-10.8,2.8-13.6-.2-.7,0-.9.2-.9.4,0,1,.6,1.5.6s.7-.4.5-1.9c-.1-1.2,0-1.7.3-1.7.8,0,2.7,3,3.6,3.5,1.8-.5,3.2-.8,4.4-.8,2.3,0,3.8,1.2,6.1,4.2.8,1.1,1.8,2.1,2.7,3,2.7,2.7,3.6,5.9,3.2,9.6-.3,2.6.2,5,2.1,7,1.9,1.9,2.2,4.3,2.5,6.9.4,3.6,1.3,7.1,2.1,11.8.2-2.3.4-3.4.3-4.6,0-3.1-.2-6.2-.1-9.4.2-10.3-2.8-20.1,0-28.2,1.1-3.2,1.8-4.3,2.3-4.3M220.8,204.3h0c-6.1,0-9.2,4.4-10.8,8-2.4-2.2-5.9-4.1-10.5-4.1s-.6,0-.9,0c-1.7-1.4-4-2.7-7.1-2.7h0c-3,0-5.9,1.3-7.9,3.5-.6.7-1.1,1.4-1.5,2.2-.4.4-.8.8-1.2,1.2-1.2,1.4-3,4.5-2.1,9,0,.8-.3,2.6-.8,4.3-.6.5-1.2,1-1.7,1.6-2.8,3-4,7-4.5,10.5-2.6,3.2-5.2,8.3-6.7,13.6-.2,0-.4,0-.7.1l-1.9.4-1.6,1c-7.7,4.9-11,18.1-10,25.4.3,2,.7,3.9,1.1,5.6,0,.2,0,.4.1.5,0,0,0,0,0,0-3.8,2.2-6,6.2-5.9,10.6,0,4.9,1.8,11.3,3.5,14.7,1.4,2.9,3.3,4.7,4.8,5.9-.2,1.3-.5,2.9-.4,4.7-4.8,4.9-5,11.1-5,14.4,0,.3,0,.5,0,.8-.2,6.4-.2,14,1.7,21.8,0,.3.1.6.2,1,.4,2,1,4.8,2.7,7.5-.4,1.9-.3,3.9.4,5.8l.4,1.8-.3.6,2.3,4.3c.4.8.9,1.5,1.2,2.1,0,0,0,0,0,0,1.4,6.4,5.6,10.1,8.3,12.4.2.1.3.3.5.4,1.1,1.5,3.5,5.2,4,6.4,1.7,4.3,4.3,8.1,8.1,11.6,1.8,1.7,4.1,3.9,6.1,6.3l.2.2c.7.8,1.8,2.1,2,2.6.6,3.9,2.8,6.4,4,7.8.1.1.2.2.3.4.8.9,1.5,1.7,2.1,2.2.1.1.3.2.4.3,1.7,2.4,3.6,5,5.2,7.6,3.3,5.5,8.4,8.1,11.2,9.5,2.7,1.4,13.6,8.2,16.1,10,.4.3.7.6.9.8,1,3.8,2.2,7.4,3.4,10.9.6,1.9,1.3,3.8,1.8,5.6,2.2,7.1,6.7,10.6,10.6,12.8,1.8,1.6,6.9,6.4,8.6,8.6,1.7,2.2,3.8,4.2,6,6.3,2.3,2.2,4.7,4.5,6.4,6.8,4.6,6.1,12.9,9.7,21.7,13.1,1.2.5,2.3.9,3,1.2,1.5.7,3.6,3.9,4.8,5.8,1.2,1.9,2.3,3.6,3.8,5.1.4.4.8.8,1.2,1.1.4.4,1,.9,1.3,1.3,1.9,5.9,5.2,10.3,8.2,14.1l.7.9c1.1,1.4,2.3,3.1,2.8,4.3,1.6,4,4.1,9.2,9.5,13,0,0,0,0,0,0,3.7,6.1,8,13,13.4,19.2,1.3,3.5,2.6,6.8,3.8,10.1,1,2.8,2.9,6.6,6,12.5.6,1.2,1.3,2.5,2,3.9-1.3.9-2.6,1.9-4,3-2.7,2.3-3.9,4.9-4.7,6.5,0,0,0,0,0,0-3.9,2.9-5.8,7.6-6.3,11-.2,1.2-.7,2.7-1.3,4.4-1.1,2.9-2.4,6.5-2.6,10.8,0,.9,0,1.8,0,2.6,0,.9,0,2.1-.1,2.6-3.3,9.4-.8,17.4,1.4,22.5.6,1.5.7,2.1.8,2.2.1,9,4.7,15.2,9.1,19.6,1.3,5.4,4.3,8.1,7,9.5,3.3,7.6,8.5,12.8,15.4,15.5,0,0,0,0,0,0,0,.2,0,.3,0,.5-.1,1.2-.3,2.8-.1,4.7-.3.4-.5.8-.7,1.3-1.8,3.7-1.3,7.2-.8,11.2l.9,6.5,6.2,2c1.1.4,2.2.6,3.1.9,1.3.3,2.8.7,3.5,1.1,3.4,1.9,7.1,2.9,11.2,3,.5.8,1.2,1.7,2,2.5l2.7,2.8,3.9.3c1.7.1,3.2.2,4.6.2,5.4,0,9.9-.9,13.8-2.7,1.8.5,3.5.9,5.2,1.3,0,.6,0,1.3-.2,1.8-.4,1.8-.5,3.5-.6,4.9,0,.4,0,.9,0,1.2l-2.4,2.5.2,4.4c.2,5.9,1.2,12.9,6.1,19.5l3.6,4.8,6-.8c.2,0,.6,0,1,0,1.9,0,5-.2,8.2-2.1,2.7-1.6,4.9-3.4,6.8-5,.5-.5,1.1-.9,1.6-1.3.2-.2.4-.3.6-.5,0,0,0,.1.1.2,2,3.4,5.6,5.4,9.4,5.4s3-.3,4.3-.8h.8c1.2,1,3.9,3,9.1,7.5,3.4,3,7.4,3.7,10.4,4.3,3.1.6,3.5.8,3.8,1.3,3.7,6.3,8.3,7.7,11.6,7.7s8-.6,11.3-8c.8-1.8,1.4-3.9,1.9-6.4.7-3.6.9-7,.9-7.4v-1.3c0,0-.1-1.2-.1-1.2l-.5-2.8c0-.2,0-1,0-1.5,0-1.9,0-4.4-.8-7.3,1.2-4.3.9-8.2.6-11.2,0-.6-.1-1.3-.2-1.8-.3-4.1-2.1-8.4-4.8-11.7-3.8-4.5-8.2-5.4-11.2-5.4h-.3c-.3-1-.4-1.8-.3-2.6l.5-4.5-2.9-3.4c-.5-.5-.9-1.1-1.2-1.6,1.7-.6,3.6-1.4,5.5-2.8,1.5-1.1,2.7-2.3,3.7-3.5,1,0,2,0,3,0,3.7,2.3,8,3.4,13,3.4s3.3-.1,5.3-.3l1.7-.2,1.5-.7c3.4-1.6,11-6.6,8.8-18.7l-.6-3.2-2.3-2.3c-.5-.5-.9-1-1.4-1.5,0,0,0-.1-.1-.2,1.5.3,3.2.6,5,.6,3.2,0,6-.8,8.4-2.5l2.5-1.7,1.2-2.7c1-2.4,1.3-4.7,1.2-6.6.7-.1,1-.2,1.2-.2.5,0,3,1.2,5,2.1,3.4,1.6,6.7,2,9.4,2.4,1.1.2,2.2.3,3,.5.8.2,2.1,1,3.9,2.5,2.9,2.3,6.6,3.5,11.1,3.5s6.1-.5,8.8-1c4.2,3.8,9.9,3.8,14.2,3.8h3.7c2,1.3,4.3,2,7,2.3,3.3,3,6.9,4.8,10.8,5.5.2.3.5.6.7.9,4.1,4.9,13.5,7.8,20.2,7.8s13.5-3.4,16.4-9.3c1.8-3.7,2.5-6.2,2.5-8.8,0-1.6-.4-4.2-2.1-6.6-1.7-7.4-7.5-10.8-13-10.8s-3.6.3-5.5,1c-.7.2-1.5.4-2.5.4l-.3-.5-2.6-3.9-4.7-.6-8.3-1.1h-.1l-4.6-6.4-2.4-3.3-4-.8c-.5,0-1.2-.2-1.5-.4h0c-4-5.9-10.4-6.9-14.3-7.4l-.2-2-3-2.6-3.4-3-2-1.7-3-2.6h-4c-1.3,0-2.3.2-3.2.4-.4-.6-.9-1.2-1.5-1.7h0c-1-1.1-3.9-4.1-8.6-4.2.2-1.5,0-3.3-.6-5.2.4-2.3,0-4.5-.9-6.6-.9-2-3.3-5.4-8.7-6.3-.5,0-.9-.2-1.4-.2-1.8-.3-3.1-.5-4.1-.9-.7-.2-1.8-.8-2.8-1.4-.2,0-.3-.2-.5-.3-1-.8-3-2.6-6.2-3.2-1.4-.3-2.9-.7-4.5-1.2-3.3-.9-7.1-2-11.4-2.3-1.1,0-2.2-.1-3.3-.1s-2.5,0-3.7.1c.4-.5.7-1,1-1.4.3-.4,2-1.3,3.1-1.9l.7-.4c3.9-2.1,8-4.5,11.3-8.7.9-.4,1.9-1,2.9-1.6,4.9-3.1,6.8-6.3,7.8-8.9.3-.5.6-.9.8-1.3s.6-1,.9-1.4c3.9-2,6.4-4.8,8.3-6.8.7-.7,1.2-1.3,1.8-1.8,1.6-1.5,3.4-2.9,5.3-4.5,1.1-.9,2.1-1.7,3.2-2.6h0c1-.9,3.5-2.9,4.5-6.7,0,0,0-.1,0-.1.4-.5,2.5-1.6,3.8-2.2.5-.2,1-.5,1.5-.8,5.4-2.8,11.4-4.4,19.2-6.1.2,0,.3,0,.5,0,1.3-.2,3.5-.7,5.7-1.9h.2c2.9-1.8,4.8-2.8,6.6-2.9,2.7-.2,4.7-1.2,6.3-2.2h.2c5,0,10.2-2.7,17-8.7,4.5-4,9.1-9,12.2-13.3,1.2-1.6,2.2-3.3,3.2-4.8,1-1.6,2-3.2,3-4.5,1.5-2,2.2-2.4,2.5-2.4,3.3-.8,6-2.1,8.1-4,1-.9,2.5-1.7,6.6-1.7h0c2,0,4.5-.3,11.3-4.2,2.3-1.3,6.5-3.9,9-6.3,1.7-1.6,3-2.9,3.9-3.1,3-.6,5.1-2.2,6.2-3,.1,0,.2-.2.3-.2.8-.6,1.5-1.1,2.1-1.5.1,0,.2-.2.3-.3,6.9-2.8,11.5-7.5,15.6-11.7.1-.1.6-.5.9-.7.8-.5,1.7-1.2,2.7-2.1.1,0,.4-.3.6-.5,1.6-1.3,4.3-3.5,5.6-7.2.4-.3.8-.6,1.3-1l2.6-2,1-3.1c.2-.8.4-1.5.5-2,0,0,0-.2,0-.3,4.2-7.1,6.1-15.2,5.8-25.4,0-.5.4-1.4,3.1-3.9l.3-.2c1.4-1.3,3.6-3.2,5-6.8.5-1.1,1.5-2.5,2.6-4.1l.5-.7c0-.1.4-.4.6-.7,1.3-1.4,3.6-3.9,4.7-7.8.2-.2.4-.4.6-.6l2-2.2.5-2.9c.4-1.9.6-3.6.8-5.3.6-4.2,1-6.9,2.2-8.3l2.5-2.7.2-3.7c.1-2.4.2-4.8.3-7.1.2-5.3.4-10.3,1-15.2.4-3.6,1.6-7.5,2.8-11.1.9-2.6,2-5.3,3.2-8.2.8-2,1.7-4.1,2.5-6.2.2-.5.4-1.1.6-1.8,1-2.9,2.9-8.4,8.3-15.4,4-5.1,4.9-9.9,2.8-14.4-1.9-4-5.9-6.3-10.7-6.3h0c1.6-8.9,2.4-13.8-1.3-18.2-2-2.4-5-3.8-8.2-3.8h0c-2,0-3.7.5-5.2,1.3,0-.3-.2-.5-.3-.8-2.9-7.4-9.1-8-10.9-8h0c-3.6,0-6.2,1.6-8.1,3.4h-.3c-.7,0-1.3,0-2,.2-5.9,1.1-9,3.6-10.6,6.1-.9.4-2,.9-3,1.7-2.3-4.7-6.9-7.7-12.2-7.7s-5.2.8-7.5,2.2c-1.5.9-3.4,2.3-5.1,4.2-1.2.3-2.8.8-4.3,1.7-3.8,2.2-6,6-6.2,10.5,0,.8,0,1.4,0,1.8-1.1-.9-2.3-1.6-3.4-2.2l-2.3-1.3h-.5c-1.7-1-4.2-2.3-7.4-2.3s-6.1,1.3-8.2,3.6c-2.3,2.5-3.4,5.9-3.1,9.9.3,4.5-2.2,7.9-6.2,12.2-1.5-.5-3.2-.8-4.9-.8-4.5,0-8.5,1.9-11.4,5.4-.2.3-.5.6-.8,1-3.1,3.6-9.3,11-12.7,19.9-4.9.4-9.2,2.6-12.9,6.4-3.6,3.7-6.2,8-7.9,13.1-2.3,1.3-4,3-5.1,4.2-.2.2-.6.6-.8.8-4.5,1.9-7.5,6-9.2,9.1-1.6,3-3,6-4.3,9-.6,1.4-1.2,2.7-1.8,4-.4.7-.7,1.5-1.2,2.3-.7,1.4-1.6,3-2.3,4.8-.9,2.1-4.7,4.9-12.8,6.6-.7,0-1.4-.1-2.1-.1-8,0-16.1,4.2-20.5,10.6h-6.4c0,.1-6,.2-6,.2l-2.9,5.3c-.1.2-.2.3-.3.5-1,1.5-2.8,4.2-3,8,0,1.2-.6,2.8-1.3,4.6-.3.8-.6,1.7-.9,2.6-1.3,3.8-1.7,7.7-1.2,11.9-.9.3-1.8.6-2.5.9-9,3.2-12.4,9.2-13.5,14.6-7.6,1.9-13,7.9-13.9,15.8l-.2,2.1c-1.4,1.6-2,2.8-2.3,3.6l-1.3,3,.7,3.2c.5,2.3,1.3,4.3,2.1,5.9-.1.1-.2.3-.3.4-.1.2-.3.4-.4.6-.3.3-.6.5-.9.8.5-5.2-1.4-10.5-5.7-14-2.8-2.3-7.4-6-13.8-6.6,1.3-3,2.5-7.8-.2-13,0-.2,0-.4-.1-.6-.3-1.5-.7-3.6-1.7-5.7-2.2-4.6-6.4-7.3-11.3-7.3h0c-1.5,0-3,.3-4.5.8-.8.3-3,.7-5.4.7.3-1.4.6-3,.7-4.7,0-.4,0-.7,0-.9,2.6-3.6,3.6-7.8,3.2-12.5,0-.5,0-1.6.1-2.4.3-4.3.7-9.6-3-13.7-2.1-2.3-5-3.5-8.1-3.5h-.2c-1.2-.6-2.8-1.2-4.7-1.3-.1-.8-.3-1.8-.6-2.7-1.3-4.8-4.6-7.3-7.7-8.1,0-.2,0-.4,0-.6l-.5-3.1-2.2-2.3c-2.8-3-8.1-8.6-16.4-8.6s-1.6,0-2.4.1c-.7-4.3-2.8-10.6-9.5-13.4-2.2-.9-4.4-2.2-6.6-3.6,0,0,0-.2.1-.2.9-2,2.6-7.2-2.2-13-5.4-6.6-12.4-7.4-15.8-7.9-.1,0-.3,0-.4,0-1-.3-2.2-.7-3.5-.9,0-.8,0-1.5-.2-2.3,0-.6.1-2,.2-3,.4-6.3.8-11.7-3.1-15.8-2.1-2.2-4.9-3.5-7.9-3.5-4.6,0-7.7,2.7-9.6,5-1-.4-2.2-.8-3.6-.9-.3-2-.6-4.1-.9-6.1-.2-1.4-.5-2.6-.8-3.5h0c1.9-7.2-1.7-12.6-3.3-15-.2-.4-.5-.7-.6-.9-1.4-2.3-2.9-4.2-4.5-6-.6-.7-1.2-1.5-1.8-2.3l-5.2-6.7-.9.4c-1.3-4.2-3.5-8.2-6.5-11.2-2.5-2.6-5.7-3.8-7.9-4.3-1-.2-2-.4-3-.4-2,0-4.6.5-6.9,1.8,0-.2,0-.5,0-.7-.2-1.9.2-4.8.6-7.1.5-3.1.5-12.3-5.6-17.5l-.8-.6c-1.5-1.6-4.8-4.6-9.9-4.6s-2.2.1-3.5.5c-.7-6.3-4.7-11.2-10.6-13.6-.1-.5-.3-1-.4-1.4-.5-1.9-1.1-3.8-1.8-5.5-3.1-7.6-8.8-8.4-11.1-8.4s-3.9.5-5.6,1.5c-.2.1-.4.3-.7.4-1.3.8-3.3,1.9-5.4,3.4-.6-2-1.1-3.4-1.7-4.6-.4-.8-.8-1.5-1.2-2.1,0-2.7-1-5.4-2.8-7.7-2.7-3.3-7-5.4-11.2-5.4h0c-1.2,0-2.3.1-3.4.4,0,0-.2,0-.3,0-.4,0-.9-.1-1.5-.1-2.4-2-5.2-2.3-6.6-2.3h0ZM481.9,519.4c.3-.2.6-.4.9-.6,1.4-1.1,2.8-2.3,4.1-3.6-.2,1.2-.2,2.4-.2,3.5,0,.4-.3,1-1,1.8-.2.3-.5.5-.7.8,0,0,0,0,0,0-.8-.4-1.5-.8-2-1.1-.3-.2-.6-.4-.9-.6h0Z"/>
    </g>
    <path class="st5" d="M401.6,663.7c2.3,3.9.9,8.9-3,11.2-3.9,2.3-8.9.9-11.2-3-2.3-3.9,11.9-12.1,14.2-8.2h0Z"/>
    <path class="st5" d="M362.3,664.5c-2,4-.4,9,3.7,11s9,.4,11-3.7c2-4-12.6-11.3-14.7-7.3Z"/>
  </g>
</svg>