<svg width="100" height="100" viewBox="0 0 100 100" fill="none" xmlns="http://www.w3.org/2000/svg">
<path d="M43.1059 99.4646C45.4675 99.8182 47.8795 100 50.2713 100C61.645 100 72.8269 95.9798 81.7382 88.6869C90.9623 81.1414 97.179 70.4545 99.2579 58.5859C101.64 44.9495 98.2286 30.798 89.8824 19.7677C81.4758 8.63636 69.0828 1.70707 55.0145 0.272727C53.2787 0.0909091 51.5328 0 49.7969 0C37.2626 0 25.2834 4.67677 16.0593 13.1616C6.78475 21.7172 1.13321 33.3939 0.164381 46.0505C-1.13749 62.9091 5.54343 74.8384 11.3766 81.8788C18.2997 90.2323 28.0083 96.3232 37.4645 98.2525V73.6263C26.1715 66.6364 21.5292 56.2828 24.0219 43.6465C22.8311 42.9596 21.6402 42.2828 20.4493 41.596C19.1576 44.798 18.7741 51.1212 19.642 55.5859C21.3072 64.1414 25.8788 71.0202 33.2359 76.0202L33.458 76.1717V92.5455L32.7818 92.2929C24.8495 89.3636 17.6034 83.6263 12.3858 76.1212C6.51226 67.697 3.72686 57.7879 4.30211 47.4747C4.87736 37.2121 8.71232 27.7172 15.3831 20.0202C22.054 12.3232 30.9249 7.17172 41.0371 5.10101C44.0142 4.49495 47.0418 4.19192 50.0392 4.19192C67.8919 4.19192 82.0107 14.6263 88.076 24.9697L88.3384 25.4141L87.8943 25.6667C85.7649 26.8889 83.6456 28.1111 81.5061 29.3434C79.6996 30.3838 77.883 31.4343 76.0463 32.4949L75.6628 32.7172L75.3903 32.3636C69.3755 24.3333 61.5743 19.9192 52.1988 19.2727C51.3814 19.2121 50.574 19.1919 49.7768 19.1919C41.3499 19.1919 34.1543 22.2727 27.7862 28.596L28.4725 29C29.5221 29.6162 30.501 30.1919 31.4597 30.7475C36.8388 25.9495 43.2371 23.4141 49.9685 23.4141C57.8403 23.4141 65.5001 27.0101 70.4452 33.0404C75.1885 38.7071 76.8637 44.2727 76.4197 52.8889C75.3701 61.9798 70.6269 68.9697 62.3211 73.7071V78.303C68.7397 75.4646 73.4627 71.2222 76.7527 65.3535C81.7685 56.3838 82.1822 47.0606 77.994 36.8485L77.8225 36.4444L78.206 36.2222L81.1125 34.5354C84.1199 32.7879 87.1273 31.0404 90.2559 29.2323L90.7403 28.9495L90.9724 29.4646C98.5515 46.4242 97.1992 62.3939 86.9558 76.9394C77.1867 90.8182 61.6046 95.7475 51.23 95.7475C50.0089 95.7475 48.8079 95.6869 47.6675 95.5555L47.2235 95.5051V87.2727C47.2235 75.0808 47.2336 56.899 47.1932 52.0909H43.1059V65.8283L42.349 65.3939C35.9911 61.7172 32.7616 56.1818 33.0038 49.3939C33.2258 43.0606 36.3846 38.1414 42.3793 34.7879L43.1261 34.3636V45.8384H47.1831V33.1212H52.5521V40.6364C52.5521 47.9899 52.5521 54.9394 52.5823 62.2525H56.6494C56.6595 61.505 56.6797 60.7071 56.6898 59.9192C56.7201 58.0606 56.7604 56.303 56.7604 55.1717V54.3131L57.5072 54.7273L57.9109 54.9495C61.0294 56.6768 61.433 56.899 64.0973 58.6566L64.501 58.9192L64.2588 59.3333C62.0083 63.1515 57.9614 65.8182 52.8145 66.8889C52.8145 69.3232 52.8649 75.3232 52.9154 80.6465C52.9457 84.7273 52.986 88.6162 52.986 90.2525C63.5927 89.9293 77.5601 83.5353 85.3209 69.798C91.7192 58.4545 91.5174 44.7172 88.0053 36.7172C87.42 37.0404 86.8448 37.3737 86.2695 37.7071C85.7952 37.9798 85.3209 38.2626 84.8566 38.5354L84.4832 38.7576C87.6319 49.1515 86.3906 59.7677 80.9813 68.697C75.7032 77.4141 67.024 83.6061 57.7696 85.2525L57.1742 85.3535V84.7475C57.1742 81.3838 57.1641 78.1616 57.154 75.4646C57.154 73.505 57.1439 71.8182 57.1439 70.5354V70.2222L57.4164 70.0808C64.6019 66.4242 69.1736 61.5555 70.0314 56.6667L68.78 55.9798C66.3479 54.6465 63.6331 53.1515 61.322 51.8889L59.5862 50.9394H61.5642C64.057 50.9394 65.9038 50.9394 67.5589 50.9394C68.7699 50.9394 69.8902 50.9394 71.0911 50.9394C72.0095 44.8081 68.6286 36.0303 60.4037 31.4444C57.1843 29.6465 53.7328 28.7273 50.1703 28.7273C49.3327 28.7273 48.4648 28.7778 47.607 28.8788C41.794 29.5657 36.859 32.3636 32.9534 37.2121L32.6809 37.5455L32.3075 37.3333C28.2606 34.9899 24.3146 32.7071 20.3484 30.4242L19.8943 30.1616L20.1769 29.7172C25.0311 22.1515 33.2763 16.5354 42.2279 14.697C45.0133 14.1212 47.7684 13.8384 50.4126 13.8384C60.2926 13.8384 69.2443 17.8687 77.0454 25.8182C77.8023 25.3737 78.539 24.9394 79.2757 24.5152L80.5574 23.7677C75.36 17.1212 64.4102 9.58586 49.9988 9.58586C47.3244 9.58586 44.6298 9.85859 41.9756 10.3939C25.5256 13.7071 12.7189 27.0606 10.105 43.6061C8.80315 51.8586 10.0041 60.1414 13.5666 67.5657C16.8364 74.3636 21.8319 80 28.0587 83.9293V78.9091C11.1142 65.4343 11.7097 44.8384 17.5731 34.4646L17.8052 34.0606L18.2291 34.2525C21.1053 35.5657 29.0578 40.2525 30.1074 41.3737L30.3193 41.596L30.2184 41.8889C26 53.5354 31.4093 65.7071 42.8133 70.202L43.1362 70.3232V99.4646H43.1059ZM56.8109 46.2121V34.3939L57.5476 34.7879C62.2808 37.2828 65.2176 40.9798 66.5396 46.0909L66.7011 46.7172H56.8109V46.2121Z" fill="#F51700"/>
</svg>
