<svg width="100" height="100" viewBox="0 0 100 100" fill="none" xmlns="http://www.w3.org/2000/svg">
<g clip-path="url(#clip0_5082_82)">
<path d="M42.709 99.3928V70.4601C31.5647 66.0755 25.459 54.1524 29.9397 41.7967C29.007 40.8063 21.3724 36.239 18.3243 34.8544C12.2859 45.5274 12.4493 65.5467 28.7763 78.364V84.4697C15.7378 76.6717 7.24742 60.9024 9.9878 43.5851C12.6609 26.6332 25.7282 13.5659 41.959 10.2967C58.882 6.8832 74.0359 14.8255 81.0263 24.1717C79.6128 24.9986 78.2186 25.8063 76.7282 26.6813C67.2474 16.8832 55.8916 12.7774 42.4109 15.537C33.5551 17.3544 25.507 22.989 20.882 30.1909C24.8051 32.4505 28.7186 34.7101 32.7282 37.0274C36.6032 32.2197 41.507 29.3063 47.5743 28.5947C52.1513 28.0563 56.507 28.9313 60.5551 31.1909C69.4397 36.1428 72.3916 45.6428 71.3243 51.4313C68.3051 51.4313 65.959 51.4409 61.459 51.4409C64.257 52.9697 67.6513 54.8351 70.4013 56.3447C69.6705 61.5178 65.0166 66.5467 57.5743 70.3351C57.5743 73.3447 57.6128 78.662 57.6128 84.4024C74.7859 81.3447 90.8532 61.8063 83.5743 38.6332C84.2474 38.239 84.9686 37.8063 85.6897 37.3928C86.4205 36.9697 87.1513 36.5563 87.8916 36.1428C91.7186 44.2774 91.834 58.5274 85.4397 69.8447C77.757 83.4313 63.584 90.2197 52.4686 90.3543C52.4686 87.8159 52.2955 70.0851 52.2955 66.3063C57.0743 65.4024 61.334 63.0082 63.709 58.9794C60.9782 57.1813 60.6609 57.0178 57.2186 55.114C57.2186 56.8255 57.1416 60.0755 57.1032 62.6236H52.084C52.0359 52.9986 52.0551 44.2967 52.0551 33.7774H47.7378V46.364H42.7186V35.3544C36.9878 38.5563 33.9013 43.1909 33.6801 49.3928C33.4397 56.0947 36.7186 61.3255 42.6897 64.7774V51.5467H47.7378C47.8051 56.3351 47.7763 84.6043 47.7763 94.5755C59.2378 95.8447 76.132 90.7101 86.2474 76.3544C96.5263 61.7678 97.507 46.2294 90.1801 29.8447C86.0936 32.2101 82.1897 34.4794 78.2474 36.7678C82.2859 46.6236 82.1705 56.1717 76.9878 65.4217C73.5263 71.5947 68.4205 75.9697 61.7474 78.7582V73.1524C69.6705 68.7197 74.6513 62.037 75.7186 52.8063C76.1513 44.364 74.4686 38.9409 69.9109 33.4986C61.3628 23.0947 44.459 19.9409 31.7378 31.5274C30.3243 30.7101 28.882 29.864 27.2186 28.8928C34.2282 21.7197 42.4974 18.3928 52.2474 19.0659C62.0263 19.7486 69.7186 24.3832 75.5936 32.2294C79.5743 29.9409 83.4493 27.7005 87.334 25.4697C80.0743 13.1044 61.9013 1.85435 41.257 6.03704C21.0551 10.162 6.41088 27.037 5.25703 47.5274C4.02626 69.2967 18.3051 85.9313 33.1513 91.4024V76.1717C25.8628 71.2197 21.1801 64.4024 19.4686 55.6236C18.584 51.0755 18.9397 44.2294 20.5263 40.9697C21.9782 41.8063 23.4205 42.6332 24.8628 43.4601C22.2186 56.2101 26.882 66.2678 38.1224 73.114C38.1224 78.4697 38.1224 93.8063 38.1224 98.3832C19.6993 94.9601 -2.08912 75.2582 0.160878 46.0563C2.31472 17.9986 27.0166 -2.60719 55.0551 0.267811C84.7186 3.30627 104.257 30.5178 99.3436 58.5947C94.4782 86.3928 68.3532 103.489 42.709 99.4024V99.3928ZM57.2859 35.3736V46.2486H65.9397C64.6609 41.2774 61.834 37.7678 57.2859 35.3736Z" fill="#F51700"/>
</g>
<defs>
<clipPath id="clip0_5082_82">
<rect width="100" height="100" fill="white"/>
</clipPath>
</defs>
</svg>
