<svg width="61" height="60" viewBox="0 0 61 60" fill="none" xmlns="http://www.w3.org/2000/svg">
<path d="M48.0356 54.5713C54.5807 49.9876 58.9493 43.0935 60.3388 35.1562C61.77 26.9726 59.7232 18.483 54.7214 11.8639C49.6713 5.18321 42.238 1.02647 33.7911 0.16167C25.6543 -0.67232 17.7373 1.73943 11.5021 6.95462C5.28021 12.1566 1.50968 19.5019 0.883085 27.6349C0.104795 37.7528 4.11497 44.9089 7.61508 49.1316C11.5373 53.8649 16.9502 57.3835 22.3147 58.7368C22.8511 58.8711 23.3678 58.4574 23.3678 57.905V44.5634C23.3678 44.2707 23.2139 44.0001 22.9676 43.8416C16.6578 39.7817 13.9909 33.8888 15.2243 26.7349C15.2837 26.385 15.1144 26.0352 14.8066 25.8591L13.9711 25.3794C13.4808 25.0978 12.8564 25.3618 12.7157 25.9097C12.1947 27.9738 12.0913 31.0721 12.5355 33.3562C13.5006 38.3074 16.0817 42.3167 20.2084 45.2874C20.2216 45.2962 20.4591 45.4612 20.5734 45.6152C20.7405 45.8441 20.802 46.1544 20.802 46.7573V52.7977C20.802 55.2402 19.2828 54.7451 18.6826 54.4634C14.6747 52.5754 11.0514 49.4771 8.3428 45.5844C4.84269 40.5585 3.17618 34.6479 3.52356 28.4931C3.86873 22.3647 6.15523 16.7028 10.1346 12.1148C14.1162 7.52675 19.4104 4.45265 25.4476 3.22697C37.3726 0.804217 48.1148 6.81159 52.9736 14.2185C53 14.2603 53.0241 14.3021 53.0527 14.3417C53.576 15.0283 53.4221 15.3649 53.1605 15.53C52.8988 15.695 53.0351 15.6026 53.0351 15.6026L47.0133 19.075C47.0133 19.075 46.8748 19.1586 46.7539 19.2246C46.4856 19.3721 46.0129 19.3831 45.593 18.8131C45.5534 18.7581 45.5073 18.7053 45.4655 18.6525C41.9346 14.2977 37.4473 11.9057 32.1136 11.5339C26.7777 11.162 22.2201 12.7573 18.2143 16.4014C17.7856 16.7931 17.8516 17.4862 18.3528 17.7789L19.1883 18.2652C19.4983 18.4456 19.8874 18.4148 20.1623 18.1838C23.5744 15.3121 27.7187 13.906 31.9092 14.2075C36.2227 14.5199 40.2527 16.5906 42.9613 19.8936C45.7733 23.2581 46.7736 26.5655 46.5186 31.6795C46.5186 31.7037 46.5142 31.7301 46.512 31.7543C45.8942 37.0003 43.201 41.0734 38.5027 43.8834C38.241 44.0397 38.0783 44.3169 38.0783 44.6228V45.7033C38.0783 46.3414 38.7555 46.7573 39.3227 46.4668C42.614 44.7768 45.0917 42.3937 46.8704 39.2206C49.7725 34.0384 50.1133 28.6604 47.8993 22.8004C47.8883 22.7718 47.8795 22.741 47.8663 22.7124C47.6289 22.2151 47.7916 21.7838 48.007 21.6562C48.2225 21.5285 48.2445 21.5131 48.2445 21.5131L54.174 18.0694C54.174 18.0694 54.1674 18.0738 54.3565 17.9637C54.6225 17.8075 55.1875 17.8405 55.5635 18.4963C55.6031 18.5667 55.625 18.6437 55.6558 18.7185C59.6946 28.4711 58.747 37.667 52.8373 46.0641C47.2002 54.074 38.0541 57.3835 31.1924 57.2757C31.1375 57.2757 31.0825 57.2757 31.0297 57.2735C30.1437 57.2295 29.2093 56.6353 29.2093 54.8573C29.2093 53.9815 29.2093 53.0045 29.2093 51.9571C29.2115 45.3226 29.2181 35.669 29.1961 32.0095C29.194 31.5386 28.8114 31.1601 28.3409 31.1601H27.4329C26.9602 31.1601 26.5777 31.543 26.5777 32.0161V38.1291C26.5777 39.1194 25.9555 38.9543 25.8126 38.8663C22.3213 36.679 20.5536 33.4949 20.6943 29.6286C20.8174 26.242 22.3476 23.5398 25.2475 21.5836C25.5707 21.3657 26.5931 20.6417 26.5931 21.4207V26.7305C26.5931 27.2036 26.9756 27.5865 27.4483 27.5865H28.3321C28.8048 27.5865 29.1874 27.2036 29.1874 26.7305V20.831C29.1874 20.3579 29.5699 19.975 30.0426 19.975H31.3793C31.852 19.975 32.2346 20.3579 32.2346 20.831V23.9667C32.2346 28.4381 32.2324 32.3462 32.2478 36.558C32.2478 37.0289 32.6325 37.4118 33.103 37.4118H34.0066C34.4727 37.4118 34.853 37.0377 34.8618 36.5712C34.8662 36.3819 34.8684 36.1883 34.8728 35.9968C34.8926 34.9054 34.9124 33.4267 34.9124 33.0922C34.9124 32.7929 35.1455 32.8479 35.4181 33.002C35.4467 33.0174 37.5001 34.1902 38.7709 34.9824C39.4129 35.3829 39.0171 35.8956 38.8962 36.0673C37.6078 37.9091 35.561 39.2382 33.026 39.8851C32.6435 39.9819 32.3753 40.323 32.3753 40.7169C32.3841 42.4179 32.4104 45.5294 32.4346 48.3329C32.45 50.2495 32.4654 52.0913 32.4742 53.2686C32.4786 53.7615 32.8941 54.1532 33.3866 54.1158C39.6415 53.6317 47.5212 49.7786 51.9776 41.8854C55.5987 35.4731 55.6932 27.7714 53.9256 22.8774C53.7453 22.3757 53.1539 22.1623 52.6922 22.4285L51.8809 22.8973C51.5467 23.0909 51.3796 23.4848 51.483 23.8589C53.1495 29.875 52.3624 35.9836 49.2316 41.1504C46.3053 45.9783 41.6312 49.5057 36.5591 50.7666C36.48 50.7864 36.4008 50.8084 36.3195 50.8238C35.0773 51.0857 35.1498 49.9106 35.1389 49.2637C35.1367 49.1272 35.1389 48.993 35.1389 48.861C35.1345 47.6815 35.1279 46.5681 35.1279 45.2345C35.1279 43.0847 35.1169 42.6534 35.2642 42.3585C35.4225 42.0438 35.484 41.958 36.0601 41.6565C36.6361 41.3551 36.8559 41.1966 37.2319 40.959C40.1296 39.1061 42.0489 36.8946 42.6887 34.6435C42.7986 34.254 42.6338 33.8403 42.2798 33.6467C42.2798 33.6467 38.052 31.3208 37.654 31.1073C37.2561 30.8939 37.4166 30.6518 37.6826 30.6518C38.1707 30.6518 42.216 30.6474 42.6843 30.6452C43.1526 30.643 43.5132 30.2909 43.5396 29.8398C43.7396 26.2024 41.6642 21.4097 37.0296 18.8263C34.6266 17.4862 32.0345 16.9669 29.3215 17.2838C26.0566 17.6645 23.2578 19.1542 20.9911 21.7178C20.9691 21.742 20.9471 21.7684 20.9252 21.7926C20.3381 22.4131 19.606 21.995 19.606 21.995L19.4499 21.9048L13.4193 18.4214C13.4193 18.4214 12.8389 18.0914 13.2368 17.5302C13.3094 17.429 13.3775 17.3256 13.4479 17.2244C16.3873 13.0588 21.0703 9.99131 26.1314 8.95267C33.8241 7.37271 40.6682 9.46539 46.4812 15.1713C46.7539 15.4398 47.1738 15.486 47.5036 15.2945L48.3016 14.828C48.7655 14.5574 48.8689 13.9302 48.5149 13.5253C44.1332 8.49717 35.5676 4.27881 25.9445 6.21965C16.0685 8.21111 8.37798 16.2231 6.80821 26.1584C6.02552 31.1117 6.74665 36.0849 8.89024 40.5409C10.6337 44.1673 13.1994 47.2436 16.3719 49.5365C16.9348 49.9436 17.7197 49.5321 17.7197 48.8368V47.6595C17.7197 47.402 17.6009 47.16 17.4009 46.9949C7.96245 39.2668 7.96025 27.767 11.0558 21.4537C11.0756 21.4119 11.0976 21.3701 11.1174 21.3283C11.2185 21.1259 11.4648 20.4547 12.2408 20.897C12.2716 20.9146 12.3024 20.9278 12.3354 20.9432C14.1096 21.841 17.0821 23.6124 18.3067 24.4904C18.3528 24.5234 18.3968 24.5586 18.4386 24.5872C18.9025 24.8909 18.7574 25.3662 18.7156 25.4916C18.6958 25.5533 18.676 25.6127 18.6562 25.6743C17.5987 28.9926 17.7702 32.4298 19.1575 35.4137C20.4898 38.2832 22.8445 40.5695 25.828 41.9052C25.8521 41.9162 25.8851 41.9294 25.9203 41.9448C26.604 42.2463 26.5733 43.5842 26.5733 44.4336V58.9195C26.5733 59.353 26.8987 59.716 27.3296 59.7689C34.5892 60.6865 41.906 58.8556 48.0312 54.5669L48.0356 54.5713ZM35.0201 21.4647C35.0773 21.1765 35.4049 21.0356 35.6599 21.1831C38.1047 22.5848 39.6877 24.5674 40.477 27.2212C40.5209 27.3731 40.7826 27.9562 39.8724 27.9562H35.7984C35.3257 27.9562 34.9432 27.5733 34.9432 27.1002V22.4572C34.9432 21.9994 34.9762 21.6826 35.0201 21.4625V21.4647Z" fill="#F51700"/>
</svg>
