<?xml version="1.0" encoding="UTF-8"?>
<svg id="Layer_1" xmlns="http://www.w3.org/2000/svg" version="1.1" viewBox="0 0 1000 1000">
  <!-- Generator: Adobe Illustrator 29.0.0, SVG Export Plug-In . SVG Version: 2.1.0 Build 186)  -->
  <path d="M119.22,830.88H50.58v-14.87c29.74-4.58,54.91-26.31,54.91-56.05v-344.32c58.34-17.16,102.95-41.18,155.57-73.21l-26.31-14.87c-86.94-49.19-167.01-84.65-167.01-165.87,0-90.37,101.81-114.39,194.47-114.39v17.16c-54.91,9.15-92.66,22.88-92.66,67.49,0,46.9,42.33,61.77,129.26,108.67l65.2,35.46c77.79,42.33,146.42,93.8,146.42,179.6v187.6c0,89.23-89.23,144.13-125.83,185.32-3.43,4.58-8.01,10.29-53.76,59.48-40.04-19.45-117.82-57.2-211.63-57.2ZM209.59,420.21l3.43,316.87,163.58,48.04c24.02-21.73,26.31-56.05,26.31-102.95v-164.72c0-86.94-48.04-121.26-100.67-151-24.02,12.58-49.19,27.45-92.66,53.76Z"/>
  <path d="M636.26,670.73v-77.79c0-163.58,93.8-229.93,231.07-292.84h13.73l68.63,102.95-88.08,60.63-65.2-85.79c-46.9,36.61-46.9,73.21-46.9,162.44v100.66c0,91.51,24.02,130.41,51.48,153.29l130.41-61.77,11.44,33.17c-61.77,33.17-124.69,81.22-187.6,122.4h-14.87c-44.61-37.75-104.1-109.82-104.1-217.35Z"/>
</svg>